<?xml version="1.0" encoding="UTF-8"?>
<svg width="463px" height="93px" viewBox="0 0 463 93" version="1.1" xmlns="http://www.w3.org/2000/svg" xmlns:xlink="http://www.w3.org/1999/xlink">
    <!-- Generator: Sketch 44 (41411) - http://www.bohemiancoding.com/sketch -->
    <title>title</title>
    <desc>Created with Sketch.</desc>
    <defs></defs>
    <g id="template" stroke="none" stroke-width="1" fill="none" fill-rule="evenodd">
        <g id="page" transform="translate(-405.000000, -3461.000000)" fill="#191919">
            <g id="advantages" transform="translate(0.000000, 3378.000000)">
                <path d="M623.92,118 L622.6,118 L622.6,98.44 L609.6,98.44 L609.6,118 L608.28,118 L608.28,97.2 L623.92,97.2 L623.92,118 Z M640.92,118.4 C640.013329,118.4 639.153337,118.266668 638.34,118 C637.526662,117.733332 636.76667,117.373336 636.06,116.92 C635.35333,116.466664 634.706669,115.933336 634.12,115.32 C633.53333,114.706664 633.026669,114.053337 632.6,113.36 L632.6,126.52 L631.24,126.52 L631.24,97.2 L632.52,97.2 L632.52,101.52 C632.946669,100.85333 633.459997,100.233336 634.06,99.66 C634.660003,99.0866638 635.31333,98.5933354 636.02,98.18 C636.72667,97.7666646 637.459996,97.4466678 638.22,97.22 C638.980004,96.9933322 639.759996,96.88 640.56,96.88 C642.000007,96.88 643.333327,97.1866636 644.56,97.8 C645.786673,98.4133364 646.839995,99.2266616 647.72,100.24 C648.600004,101.253338 649.286664,102.40666 649.78,103.7 C650.273336,104.99334 650.52,106.30666 650.52,107.64 C650.52,109.080007 650.286669,110.453327 649.82,111.76 C649.353331,113.066673 648.700004,114.206662 647.86,115.18 C647.019996,116.153338 646.013339,116.93333 644.84,117.52 C643.666661,118.10667 642.360007,118.4 640.92,118.4 Z M640.72,117.12 C642.000006,117.12 643.159995,116.846669 644.2,116.3 C645.240005,115.753331 646.126663,115.033338 646.86,114.14 C647.593337,113.246662 648.159998,112.233339 648.56,111.1 C648.960002,109.966661 649.16,108.813339 649.16,107.64 C649.16,106.413327 648.933335,105.226672 648.48,104.08 C648.026664,102.933328 647.400004,101.920004 646.6,101.04 C645.799996,100.159996 644.866672,99.4600026 643.8,98.94 C642.733328,98.4199974 641.586673,98.16 640.36,98.16 C639.586663,98.16 638.766671,98.326665 637.9,98.66 C637.033329,98.993335 636.220004,99.4333306 635.46,99.98 C634.699996,100.526669 634.053336,101.159996 633.52,101.88 C632.986664,102.600004 632.68,103.359996 632.6,104.16 L632.6,111.32 C632.946668,112.120004 633.406664,112.87333 633.98,113.58 C634.553336,114.28667 635.186663,114.899997 635.88,115.42 C636.573337,115.940003 637.333329,116.353332 638.16,116.66 C638.986671,116.966668 639.839995,117.12 640.72,117.12 Z M665,118.4 C663.586659,118.4 662.266672,118.113336 661.04,117.54 C659.813327,116.966664 658.740004,116.180005 657.82,115.18 C656.899995,114.179995 656.180002,113.020007 655.66,111.7 C655.139997,110.379993 654.88,108.973341 654.88,107.48 C654.88,106.013326 655.13333,104.640006 655.64,103.36 C656.146669,102.079994 656.853328,100.960005 657.76,100 C658.666671,99.0399952 659.719994,98.2800028 660.92,97.72 C662.120006,97.1599972 663.426659,96.88 664.84,96.88 C666.280007,96.88 667.613327,97.1599972 668.84,97.72 C670.066672,98.2800028 671.133328,99.0466618 672.04,100.02 C672.946671,100.993338 673.659997,102.133327 674.18,103.44 C674.700002,104.746673 674.96,106.133326 674.96,107.6 L674.96,107.92 C674.96,108.080001 674.946666,108.173333 674.92,108.2 L656.28,108.2 C656.386667,109.480006 656.686664,110.673328 657.18,111.78 C657.673335,112.886672 658.313329,113.839996 659.1,114.64 C659.88667,115.440004 660.793328,116.073331 661.82,116.54 C662.846671,117.006669 663.933327,117.24 665.08,117.24 C665.82667,117.24 666.566663,117.140001 667.3,116.94 C668.033337,116.739999 668.719996,116.453335 669.36,116.08 C670.000003,115.706665 670.559997,115.260003 671.04,114.74 C671.520002,114.219997 671.906665,113.653336 672.2,113.04 L673.44,113.36 C673.146665,114.080004 672.720002,114.75333 672.16,115.38 C671.599997,116.00667 670.940003,116.539998 670.18,116.98 C669.419996,117.420002 668.600004,117.766665 667.72,118.02 C666.839995,118.273335 665.933338,118.4 665,118.4 Z M673.6,107.04 C673.519999,105.733327 673.240002,104.533339 672.76,103.44 C672.279997,102.346661 671.64667,101.400004 670.86,100.6 C670.073329,99.799996 669.173338,99.1800022 668.16,98.74 C667.146661,98.2999978 666.053339,98.08 664.88,98.08 C663.70666,98.08 662.613338,98.3066644 661.6,98.76 C660.586661,99.2133356 659.700003,99.839996 658.94,100.64 C658.179996,101.440004 657.566669,102.386661 657.1,103.48 C656.633331,104.573339 656.36,105.759994 656.28,107.04 L673.6,107.04 Z M681.679999,116.08 L695.959999,97.2 L697.079999,97.2 L697.079999,118 L695.759999,118 L695.759999,99.44 L681.719999,118 L680.359999,118 L680.359999,97.24 L681.679999,97.24 L681.679999,116.08 Z M714.759999,112.64 L723.799999,97.2 L725.039999,97.2 L725.039999,118 L723.719999,118 L723.719999,99.8 L715.199999,114.36 L714.319999,114.36 L705.759999,99.8 L705.759999,118 L704.439999,118 L704.439999,97.2 L705.719999,97.2 L714.759999,112.64 Z M732.439999,124.84 C733.026669,125.346669 733.706662,125.6 734.479999,125.6 C734.853334,125.6 735.199998,125.500001 735.519999,125.3 C735.840001,125.099999 736.179997,124.720003 736.539999,124.16 C736.900001,123.599997 737.306664,122.826672 737.759999,121.84 C738.213335,120.853328 738.746663,119.573341 739.359999,118 L729.879999,97.2 L731.319999,97.2 L740.079999,116.56 L748.319999,97.2 L749.679999,97.2 L738.919999,122.4 C738.226662,124.026675 737.540003,125.17333 736.859999,125.84 C736.179996,126.50667 735.400004,126.84 734.519999,126.84 C733.533328,126.84 732.746669,126.586669 732.159999,126.08 L732.439999,124.84 Z M754.719999,97.2 L756.039999,97.2 L756.039999,116.76 L765.799999,116.76 L765.799999,97.2 L767.159999,97.2 L767.159999,116.76 L776.919999,116.76 L776.919999,97.2 L778.239999,97.2 L778.239999,116.76 L781.199999,116.76 L781.199999,124.28 L779.959999,124.28 L779.959999,118 L754.719999,118 L754.719999,97.2 Z M794.919999,118.4 C793.506658,118.4 792.186672,118.113336 790.959999,117.54 C789.733326,116.966664 788.660003,116.180005 787.739999,115.18 C786.819994,114.179995 786.100001,113.020007 785.579999,111.7 C785.059996,110.379993 784.799999,108.973341 784.799999,107.48 C784.799999,106.013326 785.05333,104.640006 785.559999,103.36 C786.066668,102.079994 786.773328,100.960005 787.679999,100 C788.58667,99.0399952 789.639993,98.2800028 790.839999,97.72 C792.040005,97.1599972 793.346658,96.88 794.759999,96.88 C796.200006,96.88 797.533326,97.1599972 798.759999,97.72 C799.986672,98.2800028 801.053328,99.0466618 801.959999,100.02 C802.86667,100.993338 803.579996,102.133327 804.099999,103.44 C804.620001,104.746673 804.879999,106.133326 804.879999,107.6 L804.879999,107.92 C804.879999,108.080001 804.866666,108.173333 804.839999,108.2 L786.199999,108.2 C786.306666,109.480006 786.606663,110.673328 787.099999,111.78 C787.593335,112.886672 788.233328,113.839996 789.019999,114.64 C789.806669,115.440004 790.713327,116.073331 791.739999,116.54 C792.766671,117.006669 793.853326,117.24 794.999999,117.24 C795.746669,117.24 796.486662,117.140001 797.219999,116.94 C797.953336,116.739999 798.639996,116.453335 799.279999,116.08 C799.920002,115.706665 800.479996,115.260003 800.959999,114.74 C801.440001,114.219997 801.826664,113.653336 802.119999,113.04 L803.359999,113.36 C803.066664,114.080004 802.640002,114.75333 802.079999,115.38 C801.519996,116.00667 800.860003,116.539998 800.099999,116.98 C799.339995,117.420002 798.520003,117.766665 797.639999,118.02 C796.759994,118.273335 795.853337,118.4 794.919999,118.4 Z M803.519999,107.04 C803.439998,105.733327 803.160001,104.533339 802.679999,103.44 C802.199996,102.346661 801.566669,101.400004 800.779999,100.6 C799.993328,99.799996 799.093337,99.1800022 798.079999,98.74 C797.06666,98.2999978 795.973338,98.08 794.799999,98.08 C793.62666,98.08 792.533337,98.3066644 791.519999,98.76 C790.50666,99.2133356 789.620003,99.839996 788.859999,100.64 C788.099995,101.440004 787.486668,102.386661 787.019999,103.48 C786.55333,104.573339 786.279999,105.759994 786.199999,107.04 L803.519999,107.04 Z M808.759999,107.52 C808.759999,106.026659 809.013329,104.63334 809.519999,103.34 C810.026668,102.04666 810.733327,100.920005 811.639999,99.96 C812.54667,98.9999952 813.619992,98.2466694 814.859999,97.7 C816.100005,97.1533306 817.439991,96.88 818.879999,96.88 C820.693341,96.88 822.306658,97.2999958 823.719999,98.14 C825.133339,98.9800042 826.186662,100.133326 826.879999,101.6 L825.559999,102.08 C824.893329,100.853327 823.960005,99.8933368 822.759999,99.2 C821.559993,98.5066632 820.226673,98.16 818.759999,98.16 C817.559993,98.16 816.433337,98.3999976 815.379999,98.88 C814.32666,99.3600024 813.406669,100.019996 812.619999,100.86 C811.833328,101.700004 811.220001,102.693328 810.779999,103.84 C810.339996,104.986672 810.119999,106.213327 810.119999,107.52 C810.119999,108.826673 810.35333,110.059994 810.819999,111.22 C811.286668,112.380006 811.913328,113.399996 812.699999,114.28 C813.486669,115.160004 814.40666,115.853331 815.459999,116.36 C816.513337,116.866669 817.626659,117.12 818.799999,117.12 C819.573336,117.12 820.339995,117.006668 821.099999,116.78 C821.860002,116.553332 822.559995,116.253335 823.199999,115.88 C823.840002,115.506665 824.39333,115.073336 824.859999,114.58 C825.326668,114.086664 825.639998,113.560003 825.799999,113 L827.159999,113.4 C826.919997,114.120004 826.526668,114.786664 825.979999,115.4 C825.433329,116.013336 824.793336,116.539998 824.059999,116.98 C823.326662,117.420002 822.520003,117.766665 821.639999,118.02 C820.759994,118.273335 819.853337,118.4 818.919999,118.4 C817.506658,118.4 816.186671,118.113336 814.959999,117.54 C813.733326,116.966664 812.660003,116.186672 811.739999,115.2 C810.819994,114.213328 810.093335,113.060007 809.559999,111.74 C809.026663,110.419993 808.759999,109.013341 808.759999,107.52 Z M839.439998,118 L838.119998,118 L838.119998,98.44 L830.279998,98.44 L830.279998,97.2 L847.239998,97.2 L847.239998,98.44 L839.439998,98.44 L839.439998,118 Z M861.839998,97.2 C862.586669,97.2 863.266662,97.3466652 863.879998,97.64 C864.493335,97.9333348 865.01333,98.3199976 865.439998,98.8 C865.866667,99.2800024 866.199997,99.8333302 866.439998,100.46 C866.68,101.08667 866.799998,101.719997 866.799998,102.36 C866.799998,103.373338 866.533334,104.339995 865.999998,105.26 C865.466662,106.180005 864.720003,106.866664 863.759998,107.32 C864.960004,107.640002 865.906662,108.279995 866.599998,109.24 C867.293335,110.200005 867.639998,111.293327 867.639998,112.52 C867.639998,113.293337 867.493333,114.006663 867.199998,114.66 C866.906664,115.313337 866.513334,115.893331 866.019998,116.4 C865.526663,116.906669 864.940002,117.299999 864.259998,117.58 C863.579995,117.860001 862.853336,118 862.079998,118 L852.159998,118 L852.159998,97.2 L861.839998,97.2 Z M861.359998,106.92 C861.946668,106.92 862.493329,106.793335 862.999998,106.54 C863.506668,106.286665 863.93333,105.960002 864.279998,105.56 C864.626667,105.159998 864.899997,104.693336 865.099998,104.16 C865.299999,103.626664 865.399998,103.080003 865.399998,102.52 C865.399998,101.399994 865.060002,100.426671 864.379998,99.6 C863.699995,98.7733292 862.760004,98.36 861.559998,98.36 L853.519998,98.36 L853.519998,106.92 L861.359998,106.92 Z M861.999998,116.88 C862.613335,116.88 863.179996,116.753335 863.699998,116.5 C864.220001,116.246665 864.67333,115.913335 865.059998,115.5 C865.446667,115.086665 865.753331,114.613336 865.979998,114.08 C866.206666,113.546664 866.319998,113.000003 866.319998,112.44 C866.319998,111.879997 866.213333,111.333336 865.999998,110.8 C865.786664,110.266664 865.5,109.800002 865.139998,109.4 C864.779997,108.999998 864.340001,108.680001 863.819998,108.44 C863.299996,108.199999 862.746668,108.08 862.159998,108.08 L853.519998,108.08 L853.519998,116.88 L861.999998,116.88 Z M631.84,137.6 L631.84,166 L626.36,166 L626.36,153.88 L613.48,153.88 L613.48,166 L607.96,166 L607.96,137.6 L613.48,137.6 L613.48,149.08 L626.36,149.08 L626.36,137.6 L631.84,137.6 Z M638.48,170.08 C638.933335,170.213334 639.373331,170.313333 639.8,170.38 C640.226669,170.446667 640.586665,170.48 640.88,170.48 C641.226668,170.48 641.546665,170.413334 641.84,170.28 C642.133335,170.146666 642.399999,169.913335 642.64,169.58 C642.880001,169.246665 643.119999,168.78667 643.36,168.2 C643.600001,167.61333 643.853332,166.880004 644.12,166 L635.84,145.04 L641.36,145.04 L647.04,161.36 L652.08,145.04 L657.12,145.04 L648.32,170.16 C647.813331,171.626674 646.946673,172.826662 645.72,173.76 C644.493327,174.693338 642.973342,175.16 641.16,175.16 C640.733331,175.16 640.300002,175.126667 639.86,175.06 C639.419998,174.993333 638.960002,174.880001 638.48,174.72 L638.48,170.08 Z M673.4,166.4 C671.746658,166.4 670.306672,166.033337 669.08,165.3 C667.853327,164.566663 666.893336,163.57334 666.2,162.32 L666.2,174.52 L660.84,174.52 L660.84,145.04 L665.52,145.04 L665.52,148.64 C666.293337,147.413327 667.293327,146.44667 668.52,145.74 C669.746672,145.03333 671.159992,144.68 672.76,144.68 C674.17334,144.68 675.479994,144.966664 676.68,145.54 C677.880006,146.113336 678.913329,146.886662 679.78,147.86 C680.646671,148.833338 681.326664,149.979993 681.82,151.3 C682.313335,152.620007 682.56,154.013326 682.56,155.48 C682.56,157.000008 682.333335,158.42666 681.88,159.76 C681.426664,161.09334 680.793337,162.253328 679.98,163.24 C679.166662,164.226672 678.200005,164.999997 677.08,165.56 C675.959994,166.120003 674.73334,166.4 673.4,166.4 Z M671.6,161.84 C672.400004,161.84 673.139996,161.666668 673.82,161.32 C674.500003,160.973332 675.079997,160.50667 675.56,159.92 C676.040002,159.33333 676.413332,158.653337 676.68,157.88 C676.946668,157.106663 677.08,156.306671 677.08,155.48 C677.08,154.599996 676.933334,153.780004 676.64,153.02 C676.346665,152.259996 675.940002,151.600003 675.42,151.04 C674.899997,150.479997 674.28667,150.040002 673.58,149.72 C672.873329,149.399998 672.10667,149.24 671.28,149.24 C670.77333,149.24 670.253336,149.326666 669.72,149.5 C669.186664,149.673334 668.693335,149.919998 668.24,150.24 C667.786664,150.560002 667.380001,150.933331 667.02,151.36 C666.659998,151.786669 666.386667,152.253331 666.2,152.76 L666.2,157.68 C666.680002,158.880006 667.413328,159.873329 668.4,160.66 C669.386671,161.446671 670.453327,161.84 671.6,161.84 Z M696.719999,166.4 C695.039991,166.4 693.520006,166.113336 692.159999,165.54 C690.799993,164.966664 689.640004,164.186672 688.679999,163.2 C687.719995,162.213328 686.980002,161.066673 686.459999,159.76 C685.939997,158.453327 685.679999,157.080007 685.679999,155.64 C685.679999,154.146659 685.93333,152.740007 686.439999,151.42 C686.946669,150.099993 687.679995,148.940005 688.639999,147.94 C689.600004,146.939995 690.766659,146.14667 692.139999,145.56 C693.51334,144.97333 695.053324,144.68 696.759999,144.68 C698.466675,144.68 699.993326,144.97333 701.339999,145.56 C702.686673,146.14667 703.833328,146.933328 704.779999,147.92 C705.726671,148.906672 706.446664,150.053327 706.939999,151.36 C707.433335,152.666673 707.679999,154.02666 707.679999,155.44 C707.679999,155.786668 707.673333,156.119998 707.659999,156.44 C707.646666,156.760002 707.613333,157.026666 707.559999,157.24 L691.359999,157.24 C691.44,158.066671 691.639998,158.799997 691.959999,159.44 C692.280001,160.080003 692.69333,160.626664 693.199999,161.08 C693.706669,161.533336 694.279996,161.879999 694.919999,162.12 C695.560003,162.360001 696.226663,162.48 696.919999,162.48 C697.986671,162.48 698.993328,162.220003 699.939999,161.7 C700.886671,161.179997 701.533331,160.493338 701.879999,159.64 L706.479999,160.92 C705.706662,162.520008 704.473341,163.833328 702.779999,164.86 C701.086658,165.886672 699.066678,166.4 696.719999,166.4 Z M702.159999,153.76 C702.026665,152.186659 701.446671,150.926671 700.419999,149.98 C699.393328,149.033329 698.146673,148.56 696.679999,148.56 C695.959996,148.56 695.286669,148.686665 694.659999,148.94 C694.03333,149.193335 693.480002,149.546664 692.999999,150 C692.519997,150.453336 692.126668,150.999997 691.819999,151.64 C691.513331,152.280003 691.333333,152.986663 691.279999,153.76 L702.159999,153.76 Z M724.239999,149.68 C722.613325,149.706667 721.160006,150.019997 719.879999,150.62 C718.599993,151.220003 717.680002,152.119994 717.119999,153.32 L717.119999,166 L711.759999,166 L711.759999,145.04 L716.679999,145.04 L716.679999,149.52 C717.053335,148.799996 717.49333,148.153336 717.999999,147.58 C718.506669,147.006664 719.05333,146.506669 719.639999,146.08 C720.226669,145.653331 720.819996,145.326668 721.419999,145.1 C722.020002,144.873332 722.599997,144.76 723.159999,144.76 L723.819999,144.76 C723.966667,144.76 724.106665,144.773333 724.239999,144.8 L724.239999,149.68 Z M752.439999,137.6 L752.439999,166 L746.959999,166 L746.959999,153.88 L734.079999,153.88 L734.079999,166 L728.559999,166 L728.559999,137.6 L734.079999,137.6 L734.079999,149.08 L746.959999,149.08 L746.959999,137.6 L752.439999,137.6 Z M758.639999,166 L758.639999,145.04 L763.999999,145.04 L763.999999,166 L758.639999,166 Z M758.639999,142.12 L758.639999,136.8 L763.999999,136.8 L763.999999,142.12 L758.639999,142.12 Z M775.279999,166 L767.559999,145.04 L773.079999,145.04 L778.399999,161.64 L783.759999,145.04 L788.799999,145.04 L781.079999,166 L775.279999,166 Z M801.399999,166.4 C799.71999,166.4 798.200005,166.113336 796.839999,165.54 C795.479992,164.966664 794.320003,164.186672 793.359999,163.2 C792.399994,162.213328 791.660001,161.066673 791.139999,159.76 C790.619996,158.453327 790.359999,157.080007 790.359999,155.64 C790.359999,154.146659 790.613329,152.740007 791.119999,151.42 C791.626668,150.099993 792.359994,148.940005 793.319999,147.94 C794.280003,146.939995 795.446658,146.14667 796.819999,145.56 C798.193339,144.97333 799.733323,144.68 801.439999,144.68 C803.146674,144.68 804.673325,144.97333 806.019999,145.56 C807.366672,146.14667 808.513327,146.933328 809.459999,147.92 C810.40667,148.906672 811.126663,150.053327 811.619999,151.36 C812.113334,152.666673 812.359999,154.02666 812.359999,155.44 C812.359999,155.786668 812.353332,156.119998 812.339999,156.44 C812.326665,156.760002 812.293332,157.026666 812.239999,157.24 L796.039999,157.24 C796.119999,158.066671 796.319997,158.799997 796.639999,159.44 C796.96,160.080003 797.373329,160.626664 797.879999,161.08 C798.386668,161.533336 798.959995,161.879999 799.599999,162.12 C800.240002,162.360001 800.906662,162.48 801.599999,162.48 C802.666671,162.48 803.673327,162.220003 804.619999,161.7 C805.56667,161.179997 806.21333,160.493338 806.559999,159.64 L811.159999,160.92 C810.386661,162.520008 809.15334,163.833328 807.459999,164.86 C805.766657,165.886672 803.746677,166.4 801.399999,166.4 Z M806.839999,153.76 L795.959999,153.76 C796.013332,152.986663 796.19333,152.280003 796.499999,151.64 C796.806667,150.999997 797.199996,150.453336 797.679999,150 C798.160001,149.546664 798.713329,149.193335 799.339999,148.94 C799.966668,148.686665 800.639995,148.56 801.359999,148.56 C802.826673,148.56 804.073327,149.033329 805.099999,149.98 C806.12667,150.926671 806.706665,152.186659 806.839999,153.76 Z M405,174.467875 C405,169.871476 405.357032,165.709244 406.071107,161.981054 C406.785182,158.252864 408.034795,154.805617 409.819982,151.639209 C411.605169,148.472801 414.05339,145.510722 417.164717,142.752883 C420.276043,139.995044 424.228899,137.288316 429.023402,134.632619 C433.205842,132.385491 436.903674,130.419284 440.117012,128.733937 C443.330349,127.048591 446.00809,125.490946 448.150315,124.060956 C450.29254,122.630965 451.924687,121.17546 453.046805,119.694399 C454.168923,118.213337 454.729973,116.502481 454.729973,114.561779 C454.729973,111.497514 453.505863,108.867392 451.057606,106.671334 C448.609349,104.475277 445.090032,103.377265 440.49955,103.377265 C438.051293,103.377265 435.807091,103.709222 433.766877,104.373147 C431.726663,105.037071 429.81399,105.930802 428.028803,107.054366 C426.243616,108.17793 424.611469,109.429153 423.132313,110.808072 C421.653158,112.186992 423.132313,110.808072 423.132313,110.808072 C420.892851,113.219655 416.724786,112.462888 413.838686,109.136235 L405.918092,100.00659 C407.244231,98.5765991 409.131401,97.0189541 411.579658,95.3336079 C414.027915,93.6482618 416.909674,92.0650815 420.225023,90.5840198 C423.540371,89.102958 427.212701,87.8772701 431.242124,86.9069193 C435.271547,85.9365685 439.581435,85.4514003 444.171917,85.4514003 C449.374464,85.4514003 454.015881,86.0897794 458.09631,87.3665568 C462.176738,88.6433342 465.619548,90.4307958 468.424843,92.7289951 C471.230137,95.0271944 473.37233,97.7849921 474.851485,101.002471 C476.330641,104.21995 477.070207,107.718268 477.070207,111.497529 C477.070207,115.072506 476.407148,118.238866 475.081008,120.996705 C473.754869,123.754544 472.071718,126.20592 470.031503,128.350906 C467.991289,130.495892 465.772589,132.359959 463.375338,133.943163 C460.978086,135.526367 458.657377,136.930801 456.413142,138.156507 C454.576949,139.177929 452.48576,140.352547 450.139514,141.680395 C447.793268,143.008244 445.472559,144.463748 443.177318,146.046952 C440.882077,147.630156 438.765386,149.264407 436.827183,150.949753 C434.888979,152.635099 433.409846,154.294885 432.389739,155.92916 L462.748956,155.92916 C471.587953,155.92916 478.753376,163.096711 478.753376,171.929017 L478.753376,174.467875 L405,174.467875 Z M575,129.576606 C575,136.317991 574.00541,142.523036 572.016202,148.191928 C570.026993,153.860819 567.272745,158.763571 563.753375,162.900329 C560.234006,167.037088 556.051629,170.254519 551.206121,172.552718 C546.360612,174.850918 541.132641,176 535.522052,176 C529.809452,176 524.555979,174.850918 519.761476,172.552718 C514.966973,170.254519 510.810098,167.037088 507.290729,162.900329 C503.771359,158.763571 501.017111,153.860819 499.027903,148.191928 C497.038694,142.523036 496.044104,136.317991 496.044104,129.576606 C496.044104,122.835222 497.038694,116.630177 499.027903,110.961285 C501.017111,105.292393 503.771359,100.389642 507.290729,96.252883 C510.810098,92.1161243 514.966973,88.8731584 519.761476,86.523888 C524.555979,84.1746176 529.809452,83 535.522052,83 C541.132641,83 546.360612,84.1746176 551.206121,86.523888 C556.051629,88.8731584 560.234006,92.1161243 563.753375,96.252883 C567.272745,100.389642 570.026993,105.292393 572.016202,110.961285 C574.00541,116.630177 575,122.835222 575,129.576606 Z M554.342934,129.576606 C554.342934,125.490919 553.883893,121.737249 552.965796,118.315486 C552.0477,114.893723 550.747083,111.957179 549.063906,109.505766 C547.38073,107.054353 545.391551,105.164751 543.09631,103.836903 C540.801069,102.509054 538.276341,101.84514 535.522052,101.84514 C532.665752,101.84514 530.09002,102.509054 527.794779,103.836903 C525.499538,105.164751 523.510359,107.054353 521.827183,109.505766 C520.144006,111.957179 518.843389,114.893723 517.925292,118.315486 C517.007196,121.737249 516.548155,125.490919 516.548155,129.576606 C516.548155,133.662294 517.007196,137.390428 517.925292,140.76112 C518.843389,144.131813 520.144006,147.042821 521.827183,149.494234 C523.510359,151.945647 525.499538,153.835249 527.794779,155.163097 C530.09002,156.490946 532.665752,157.15486 535.522052,157.15486 C538.276341,157.15486 540.801069,156.490946 543.09631,155.163097 C545.391551,153.835249 547.38073,151.945647 549.063906,149.494234 C550.747083,147.042821 552.0477,144.131813 552.965796,140.76112 C553.883893,137.390428 554.342934,133.662294 554.342934,129.576606 Z" id="title"></path>
            </g>
        </g>
    </g>
</svg>