<?xml version="1.0" encoding="UTF-8"?>
<svg width="12px" height="12px" viewBox="0 0 12 12" version="1.1" xmlns="http://www.w3.org/2000/svg" xmlns:xlink="http://www.w3.org/1999/xlink">
    <!-- Generator: Sketch 44.1 (41455) - http://www.bohemiancoding.com/sketch -->
    <title>check</title>
    <desc>Created with Sketch.</desc>
    <defs></defs>
    <g id="template" stroke="none" stroke-width="1" fill="none" fill-rule="evenodd">
        <g id="page" transform="translate(-1184.000000, -4456.000000)" fill="#E6E6E6">
            <g id="banchmark" transform="translate(0.000000, 4226.000000)">
                <g id="table" transform="translate(475.000000, 216.000000)">
                    <g id="row1">
                        <g id="Group-23" transform="translate(709.000000, 14.000000)">
                            <path d="M5.90268524,11.285699 C5.86014159,11.4475702 5.76885752,11.5954066 5.63910894,11.7125662 C5.41278813,11.9201195 5.09604845,12.0239446 4.77649559,11.9953248 C4.26326465,12.0279632 3.79444169,11.7302798 3.65030594,11.2802403 L0.271736987,8.20373936 C-0.106836434,7.81496344 -0.08764792,7.22477543 0.315519524,6.85710417 C0.718686967,6.48943292 1.36634795,6.47148307 1.79329109,6.8161479 L4.40509262,9.20049074 L9.7485031,0.568165261 C9.90350968,0.309718476 10.1665355,0.119305896 10.477862,0.0401596994 C10.7891884,-0.038986497 11.1224009,-0.000151137179 11.4018454,0.147848414 C11.9801356,0.472991589 12.1710064,1.15759525 11.833152,1.69483276 L5.90268524,11.285699 Z" id="check"></path>
                        </g>
                    </g>
                </g>
            </g>
        </g>
    </g>
</svg>