<?xml version="1.0" encoding="UTF-8"?>
<svg width="70px" height="80px" viewBox="0 0 70 80" version="1.1" xmlns="http://www.w3.org/2000/svg" xmlns:xlink="http://www.w3.org/1999/xlink">
    <!-- Generator: Sketch 44 (41411) - http://www.bohemiancoding.com/sketch -->
    <title>icon_adv02</title>
    <desc>Created with Sketch.</desc>
    <defs></defs>
    <g id="template" stroke="none" stroke-width="1" fill="none" fill-rule="evenodd">
        <g id="page" transform="translate(-405.000000, -4066.000000)">
            <g id="advantages" transform="translate(0.000000, 3378.000000)">
                <g id="19" transform="translate(405.000000, 688.000000)">
                    <g id="Group-20">
                        <path d="M0,23.408777 C0,21.1962583 1.54906698,18.4910386 3.45172136,17.3713351 L31.5482786,0.836637651 C33.4546117,-0.285230776 36.549067,-0.283065888 38.4517214,0.836637651 L66.5482786,17.3713351 C68.4546117,18.4932035 70,21.1992304 70,23.408777 L70,56.591223 C70,58.8037417 68.450933,61.5089614 66.5482786,62.6286649 L38.4517214,79.1633623 C36.5453883,80.2852308 33.450933,80.2830659 31.5482786,79.1633623 L3.45172136,62.6286649 C1.54538829,61.5067965 0,58.8007696 0,56.591223 L0,23.408777 Z" id="area" fill="#FFFFFF"></path>
                        <path d="M42.82,42 C40.0585763,42 37.82,39.7614237 37.82,37 C37.82,34.2385763 40.0585763,32 42.82,32 C45.5814237,32 47.82,34.2385763 47.82,37 C47.82,39.7614237 45.5814237,42 42.82,42 L42.82,42 Z M42.82,34 C41.1631458,34 39.82,35.3431458 39.82,37 C39.82,38.6568542 41.1631458,40 42.82,40 C44.4768542,40 45.82,38.6568542 45.82,37 C45.82,35.3431458 44.4768542,34 42.82,34 L42.82,34 Z M34.31,47.32 C33.3072094,45.2162825 31.1487974,43.9110134 28.82,44 C24.31,44 22.5,47.653 21.99,52 L20,52 C20.65,46.575 23.21,42 28.82,42 C31.5641364,41.908046 34.1445109,43.3033597 35.57,45.65 C35.0701637,46.1416781 34.6455934,46.7044022 34.31,47.32 L34.31,47.32 Z M28.82,40 C25.5062915,40 22.82,37.3137085 22.82,34 C22.82,30.6862915 25.5062915,28 28.82,28 C32.1337085,28 34.82,30.6862915 34.82,34 C34.82,37.3137085 32.1337085,40 28.82,40 L28.82,40 Z M28.82,30 C26.610861,30 24.82,31.790861 24.82,34 C24.82,36.209139 26.610861,38 28.82,38 C31.029139,38 32.82,36.209139 32.82,34 C32.82,31.790861 31.029139,30 28.82,30 L28.82,30 Z M42.82,44 C47.22,44 49.2,47.668 49.69,52 L47.71,52 C47.35,48.739 46.05,46 42.82,46 C39.59,46 38.29,48.741 37.93,52 L35.95,52 C36.44,47.669 38.42,44 42.82,44 L42.82,44 Z" id="users" fill="#478FB3"></path>
                    </g>
                </g>
            </g>
        </g>
    </g>
</svg>