<?xml version="1.0" encoding="UTF-8"?>
<svg width="70px" height="80px" viewBox="0 0 70 80" version="1.1" xmlns="http://www.w3.org/2000/svg" xmlns:xlink="http://www.w3.org/1999/xlink">
    <!-- Generator: Sketch 44 (41411) - http://www.bohemiancoding.com/sketch -->
    <title>icon_adv05</title>
    <desc>Created with Sketch.</desc>
    <defs></defs>
    <g id="template" stroke="none" stroke-width="1" fill="none" fill-rule="evenodd">
        <g id="page" transform="translate(-705.000000, -3946.000000)">
            <g id="advantages" transform="translate(0.000000, 3378.000000)">
                <g id="16" transform="translate(705.000000, 568.000000)">
                    <g id="Group-17">
                        <path d="M0,23.408777 C0,21.1962583 1.54906698,18.4910386 3.45172136,17.3713351 L31.5482786,0.836637651 C33.4546117,-0.285230776 36.549067,-0.283065888 38.4517214,0.836637651 L66.5482786,17.3713351 C68.4546117,18.4932035 70,21.1992304 70,23.408777 L70,56.591223 C70,58.8037417 68.450933,61.5089614 66.5482786,62.6286649 L38.4517214,79.1633623 C36.5453883,80.2852308 33.450933,80.2830659 31.5482786,79.1633623 L3.45172136,62.6286649 C1.54538829,61.5067965 0,58.8007696 0,56.591223 L0,23.408777 Z" id="area" fill="#FFFFFF"></path>
                        <path d="M46,36.863019 C46.0380726,37.2423154 45.8571888,37.6102652 45.5335962,37.8117674 C45.2100037,38.0132695 44.7999963,38.0132695 44.4764038,37.8117674 C44.1528112,37.6102652 43.9719274,37.2423154 44.01,36.863019 L44.01,32.688019 L35.05,41.648019 C34.7438234,41.9552675 34.2969895,42.0758334 33.8778162,41.9643009 C33.458643,41.8527684 33.1308128,41.5260818 33.0178162,41.1073009 C32.9048196,40.68852 33.0238234,40.2412675 33.33,39.934019 L42.26,31.006019 L38.15,31.006019 C37.7665779,31.0480838 37.3928627,30.8672125 37.1879648,30.5404117 C36.9830668,30.2136108 36.9830668,29.7984273 37.1879648,29.4716264 C37.3928627,29.1448255 37.7665779,28.9639543 38.15,29.006019 L44.73,29.006019 L44.79,29.006019 L44.86,29.006019 C44.89,29.006019 44.91,29.018019 44.94,29.020019 C44.97,29.022019 44.98,29.006019 45,29.006019 C45.2291523,29.0121592 45.4473257,29.1055088 45.61,29.267019 C45.6356364,29.2822148 45.6591703,29.3007057 45.68,29.322019 C45.7,29.344019 45.72,29.369019 45.74,29.393019 C45.8987539,29.5574459 45.9913222,29.7746253 46,30.003019 C46,30.025019 45.99,30.044019 45.99,30.066019 C45.99,30.088019 46,30.119019 46,30.148019 L46,36.858019 L46,36.863019 Z M26,49.011019 L42,49.011019 L42,40.011019 L44,40.011019 L44,49.011019 C44,50.1155885 43.1045695,51.011019 42,51.011019 L26,51.011019 C24.8954305,51.011019 24,50.1155885 24,49.011019 L24,33.011019 C24,31.9064495 24.8954305,31.011019 26,31.011019 L35,31.011019 L35,33.011019 L26,33.011019 L26,49.011019 L26,49.011019 Z" id="share2" fill="#478FB3"></path>
                    </g>
                </g>
            </g>
        </g>
    </g>
</svg>