<?xml version="1.0" encoding="UTF-8"?>
<svg width="70px" height="80px" viewBox="0 0 70 80" version="1.1" xmlns="http://www.w3.org/2000/svg" xmlns:xlink="http://www.w3.org/1999/xlink">
    <!-- Generator: Sketch 44 (41411) - http://www.bohemiancoding.com/sketch -->
    <title>icon_adv19</title>
    <desc>Created with Sketch.</desc>
    <defs></defs>
    <g id="template" stroke="none" stroke-width="1" fill="none" fill-rule="evenodd">
        <g id="page" transform="translate(-1305.000000, -3466.000000)">
            <g id="advantages" transform="translate(0.000000, 3378.000000)">
                <g id="02" transform="translate(1305.000000, 88.000000)">
                    <g id="Group-3">
                        <path d="M0,23.408777 C0,21.1962583 1.54906698,18.4910386 3.45172136,17.3713351 L31.5482786,0.836637651 C33.4546117,-0.285230776 36.549067,-0.283065888 38.4517214,0.836637651 L66.5482786,17.3713351 C68.4546117,18.4932035 70,21.1992304 70,23.408777 L70,56.591223 C70,58.8037417 68.450933,61.5089614 66.5482786,62.6286649 L38.4517214,79.1633623 C36.5453883,80.2852308 33.450933,80.2830659 31.5482786,79.1633623 L3.45172136,62.6286649 C1.54538829,61.5067965 0,58.8007696 0,56.591223 L0,23.408777 Z" id="area" fill="#FFFFFF"></path>
                        <path d="M35,52 C28.372583,52 23,46.627417 23,40 C23,33.372583 28.372583,28 35,28 C41.627417,28 47,33.372583 47,40 C47,46.627417 41.627417,52 35,52 L35,52 Z M35,30 C29.4771525,30 25,34.4771525 25,40 C25,45.5228475 29.4771525,50 35,50 C40.5228475,50 45,45.5228475 45,40 C45,37.3478351 43.9464316,34.804296 42.0710678,32.9289322 C40.195704,31.0535684 37.6521649,30 35,30 L35,30 Z M43,40.007 L43,40 L41,40 C41,36.6862915 38.3137085,34 35,34 C31.6862915,34 29,36.6862915 29,40 L27,40 C27,35.581722 30.581722,32 35,32 C39.418278,32 43,35.581722 43,40 L43,40.007 L43,40.007 Z M34.049,41.169 C34.0318752,41.111552 34.0201575,41.052629 34.014,40.993 L34.014,37.008 C34.014,36.4634472 34.4554472,36.022 35,36.022 C35.5445528,36.022 35.986,36.4634472 35.986,37.008 L35.986,40.993 C35.9799399,41.0523159 35.9682198,41.1109161 35.951,41.168 C37.3462888,41.6335434 38.1982559,43.0420316 37.9628153,44.4939715 C37.7273748,45.9459113 36.4739781,47.0130024 35.0030732,47.0137758 C33.5321684,47.0145491 32.2776503,45.9487766 32.0406831,44.4970851 C31.803716,43.0453936 32.6542015,41.6360104 34.049,41.169 L34.049,41.169 Z M35,45 C35.5522847,45 36,44.5522847 36,44 C36,43.4477153 35.5522847,43 35,43 C34.4477153,43 34,43.4477153 34,44 C34,44.5522847 34.4477153,45 35,45 L35,45 Z" id="speedo1" fill="#478FB3"></path>
                    </g>
                </g>
            </g>
        </g>
    </g>
</svg>