<?xml version="1.0" encoding="UTF-8"?>
<svg width="70px" height="80px" viewBox="0 0 70 80" version="1.1" xmlns="http://www.w3.org/2000/svg" xmlns:xlink="http://www.w3.org/1999/xlink">
    <!-- Generator: Sketch 44 (41411) - http://www.bohemiancoding.com/sketch -->
    <title>icon_adv08</title>
    <desc>Created with Sketch.</desc>
    <defs></defs>
    <g id="template" stroke="none" stroke-width="1" fill="none" fill-rule="evenodd">
        <g id="page" transform="translate(-1005.000000, -3826.000000)">
            <g id="advantages" transform="translate(0.000000, 3378.000000)">
                <g id="13" transform="translate(1005.000000, 448.000000)">
                    <g id="Group-14">
                        <path d="M0,23.408777 C0,21.1962583 1.54906698,18.4910386 3.45172136,17.3713351 L31.5482786,0.836637651 C33.4546117,-0.285230776 36.549067,-0.283065888 38.4517214,0.836637651 L66.5482786,17.3713351 C68.4546117,18.4932035 70,21.1992304 70,23.408777 L70,56.591223 C70,58.8037417 68.450933,61.5089614 66.5482786,62.6286649 L38.4517214,79.1633623 C36.5453883,80.2852308 33.450933,80.2830659 31.5482786,79.1633623 L3.45172136,62.6286649 C1.54538829,61.5067965 0,58.8007696 0,56.591223 L0,23.408777 Z" id="area" fill="#FFFFFF"></path>
                        <path d="M45,34 L45,34 L45,50 C45,51.1045695 44.1045695,52 43,52 L27,52 C25.8954305,52 25,51.1045695 25,50 L25,34 C23.8954305,34 23,33.1045695 23,32 L23,30 C23,28.8954305 23.8954305,28 25,28 L45,28 C46.1045695,28 47,28.8954305 47,30 L47,32 C47,33.1045695 46.1045695,34 45,34 L45,34 Z M27,50 L43,50 L43,34 L27,34 L27,50 L27,50 Z M45,30 L25,30 L25,32 L45,32 L45,30 L45,30 Z M37,42 L33,42 C31.3431458,42 30,40.6568542 30,39 C30,37.3431458 31.3431458,36 33,36 L37,36 C38.6568542,36 40,37.3431458 40,39 C40,40.6568542 38.6568542,42 37,42 L37,42 Z M37,38 L33,38 C32.4477153,38 32,38.4477153 32,39 C32,39.5522847 32.4477153,40 33,40 L37,40 C37.5522847,40 38,39.5522847 38,39 C38,38.4477153 37.5522847,38 37,38 L37,38 Z" id="box" fill="#478FB3"></path>
                    </g>
                </g>
            </g>
        </g>
    </g>
</svg>