<?xml version="1.0" encoding="UTF-8"?>
<svg width="70px" height="80px" viewBox="0 0 70 80" version="1.1" xmlns="http://www.w3.org/2000/svg" xmlns:xlink="http://www.w3.org/1999/xlink">
    <!-- Generator: Sketch 44 (41411) - http://www.bohemiancoding.com/sketch -->
    <title>icon_adv20</title>
    <desc>Created with Sketch.</desc>
    <defs></defs>
    <g id="template" stroke="none" stroke-width="1" fill="none" fill-rule="evenodd">
        <g id="page" transform="translate(-1005.000000, -3466.000000)">
            <g id="advantages" transform="translate(0.000000, 3378.000000)">
                <g id="01" transform="translate(1005.000000, 88.000000)">
                    <g id="Group-2">
                        <path d="M0,23.408777 C0,21.1962583 1.54906698,18.4910386 3.45172136,17.3713351 L31.5482786,0.836637651 C33.4546117,-0.285230776 36.549067,-0.283065888 38.4517214,0.836637651 L66.5482786,17.3713351 C68.4546117,18.4932035 70,21.1992304 70,23.408777 L70,56.591223 C70,58.8037417 68.450933,61.5089614 66.5482786,62.6286649 L38.4517214,79.1633623 C36.5453883,80.2852308 33.450933,80.2830659 31.5482786,79.1633623 L3.45172136,62.6286649 C1.54538829,61.5067965 0,58.8007696 0,56.591223 L0,23.408777 Z" id="area" fill="#FFFFFF"></path>
                        <path d="M35,52 C28.372583,52 23,46.627417 23,40 C23,33.372583 28.372583,28 35,28 C41.627417,28 47,33.372583 47,40 C47,46.627417 41.627417,52 35,52 L35,52 Z M35,30 C29.4771525,30 25,34.4771525 25,40 C25,45.5228475 29.4771525,50 35,50 C40.5228475,50 45,45.5228475 45,40 C45,34.4771525 40.5228475,30 35,30 L35,30 Z M37.23,43.7 L34.3,40.761 C34.0934769,40.5580613 33.9841944,40.2761126 34,39.987 L34,35 C34,34.4477153 34.4477153,34 35,34 C35.5522847,34 36,34.4477153 36,35 L36,39.531 L38.7,42.231 C39.1056531,42.6369293 39.1054293,43.2948469 38.6995,43.7005 C38.2935707,44.1061531 37.6356531,44.1059293 37.23,43.7 L37.23,43.7 Z" id="clock1" fill="#478FB3"></path>
                    </g>
                </g>
            </g>
        </g>
    </g>
</svg>