<?xml version="1.0" encoding="UTF-8"?>
<svg width="70px" height="80px" viewBox="0 0 70 80" version="1.1" xmlns="http://www.w3.org/2000/svg" xmlns:xlink="http://www.w3.org/1999/xlink">
    <!-- Generator: Sketch 44 (41411) - http://www.bohemiancoding.com/sketch -->
    <title>icon_adv11</title>
    <desc>Created with Sketch.</desc>
    <defs></defs>
    <g id="template" stroke="none" stroke-width="1" fill="none" fill-rule="evenodd">
        <g id="page" transform="translate(-1305.000000, -3706.000000)">
            <g id="advantages" transform="translate(0.000000, 3378.000000)">
                <g id="10" transform="translate(1305.000000, 328.000000)">
                    <g id="Group-11">
                        <path d="M0,23.408777 C0,21.1962583 1.54906698,18.4910386 3.45172136,17.3713351 L31.5482786,0.836637651 C33.4546117,-0.285230776 36.549067,-0.283065888 38.4517214,0.836637651 L66.5482786,17.3713351 C68.4546117,18.4932035 70,21.1992304 70,23.408777 L70,56.591223 C70,58.8037417 68.450933,61.5089614 66.5482786,62.6286649 L38.4517214,79.1633623 C36.5453883,80.2852308 33.450933,80.2830659 31.5482786,79.1633623 L3.45172136,62.6286649 C1.54538829,61.5067965 0,58.8007696 0,56.591223 L0,23.408777 Z" id="area" fill="#FFFFFF"></path>
                        <path d="M46.46,39.089 L38.71,43.681 L38.71,43.681 C38.5565876,43.8267748 38.3601481,43.9190312 38.15,43.944 C37.8269804,44.0294555 37.4837168,43.9198452 37.27,43.663 L33,39.435 L28.72,43.681 C28.3235774,44.0721505 27.6864226,44.0721505 27.29,43.681 L27.29,43.681 C26.8996181,43.2905001 26.8996181,42.6574999 27.29,42.267 L32.28,37.317 C32.6804797,36.9262584 33.3195203,36.9262584 33.72,37.317 L38.05,41.61 L45.58,37.143 C45.8107083,37.0021491 46.0918071,36.9702613 46.3482032,37.0558552 C46.6045993,37.1414491 46.8101705,37.3358042 46.91,37.587 L46.91,37.587 C47.1498934,38.1301968 46.9590496,38.7671909 46.46,39.089 L46.46,39.089 Z M46,50 C46.5522847,50 47,50.4477153 47,51 C47,51.5522847 46.5522847,52 46,52 L24,52 C23.4477153,52 23,51.5522847 23,51 L23,29 C23,28.4477153 23.4477153,28 24,28 C24.5522847,28 25,28.4477153 25,29 L25,50 L46,50 L46,50 Z" id="graph1" fill="#478FB3"></path>
                    </g>
                </g>
            </g>
        </g>
    </g>
</svg>