<?xml version="1.0" encoding="UTF-8"?>
<svg width="70px" height="80px" viewBox="0 0 70 80" version="1.1" xmlns="http://www.w3.org/2000/svg" xmlns:xlink="http://www.w3.org/1999/xlink">
    <!-- Generator: Sketch 44 (41411) - http://www.bohemiancoding.com/sketch -->
    <title>icon_adv18</title>
    <desc>Created with Sketch.</desc>
    <defs></defs>
    <g id="template" stroke="none" stroke-width="1" fill="none" fill-rule="evenodd">
        <g id="page" transform="translate(-405.000000, -3586.000000)">
            <g id="advantages" transform="translate(0.000000, 3378.000000)">
                <g id="03" transform="translate(405.000000, 208.000000)">
                    <g id="Group-4">
                        <path d="M0,23.408777 C0,21.1962583 1.54906698,18.4910386 3.45172136,17.3713351 L31.5482786,0.836637651 C33.4546117,-0.285230776 36.549067,-0.283065888 38.4517214,0.836637651 L66.5482786,17.3713351 C68.4546117,18.4932035 70,21.1992304 70,23.408777 L70,56.591223 C70,58.8037417 68.450933,61.5089614 66.5482786,62.6286649 L38.4517214,79.1633623 C36.5453883,80.2852308 33.450933,80.2830659 31.5482786,79.1633623 L3.45172136,62.6286649 C1.54538829,61.5067965 0,58.8007696 0,56.591223 L0,23.408777 Z" id="area" fill="#FFFFFF"></path>
                        <path d="M46.9107583,36.9489863 C46.7046434,36.3323539 46.1728026,35.8814454 45.5307583,35.7789863 L39.2807583,34.8209863 L36.5707583,29.0019863 C36.2870143,28.3909168 35.6744916,28 35.0007583,28 C34.3270249,28 33.7145023,28.3909168 33.4307583,29.0019863 L30.7207583,34.8189863 L24.4707583,35.7769863 C23.8279341,35.879943 23.2956814,36.3317942 23.0897488,36.9493821 C22.8838161,37.5669699 23.0383686,38.247834 23.4907583,38.7159863 L28.0707583,43.4319863 L27.0107583,49.9749863 C26.8983383,50.6322084 27.1729441,51.2956421 27.7169673,51.681152 C28.2609906,52.0666618 28.9779392,52.1058707 29.5607583,51.7819863 L35.0007583,48.7559863 L40.4407583,51.7819863 C40.6985309,51.9227251 40.9870774,51.9976098 41.2807583,51.9999863 C41.7912686,51.999117 42.2755488,51.7737136 42.6049207,51.3836679 C42.9342926,50.9936222 43.0754033,50.4784312 42.9907583,49.9749863 L41.9307583,43.4319863 L46.5107583,38.7159863 C46.9633575,38.2477652 47.1175811,37.5664823 46.9107583,36.9489863 L46.9107583,36.9489863 Z M40.5407583,42.1649863 C40.1614462,42.5492929 39.9902501,43.0926541 40.0807583,43.6249863 L41.1107583,50.0079863 L35.8207583,47.0579863 C35.3109722,46.7740049 34.6905444,46.7740049 34.1807583,47.0579863 L28.8907583,50.0079863 L29.9207583,43.6249863 C30.0112664,43.0926541 29.8400704,42.5492929 29.4607583,42.1649863 L25.0107583,37.5649863 L31.0907583,36.6289863 C31.6466045,36.5396424 32.1221683,36.1809099 32.3607583,35.6709863 L35.0007583,29.9969863 L37.6407583,35.6719863 C37.879604,36.181524 38.3551232,36.5398482 38.9107583,36.6289863 L44.9907583,37.5659863 L40.5407583,42.1649863 Z" id="star" fill="#478FB3"></path>
                    </g>
                </g>
            </g>
        </g>
    </g>
</svg>