<?xml version="1.0" encoding="UTF-8"?>
<svg width="70px" height="80px" viewBox="0 0 70 80" version="1.1" xmlns="http://www.w3.org/2000/svg" xmlns:xlink="http://www.w3.org/1999/xlink">
    <!-- Generator: Sketch 44 (41411) - http://www.bohemiancoding.com/sketch -->
    <title>icon_adv10</title>
    <desc>Created with Sketch.</desc>
    <defs></defs>
    <g id="template" stroke="none" stroke-width="1" fill="none" fill-rule="evenodd">
        <g id="page" transform="translate(-405.000000, -3826.000000)">
            <g id="advantages" transform="translate(0.000000, 3378.000000)">
                <g id="11" transform="translate(405.000000, 448.000000)">
                    <g id="Group-12">
                        <path d="M0,23.408777 C0,21.1962583 1.54906698,18.4910386 3.45172136,17.3713351 L31.5482786,0.836637651 C33.4546117,-0.285230776 36.549067,-0.283065888 38.4517214,0.836637651 L66.5482786,17.3713351 C68.4546117,18.4932035 70,21.1992304 70,23.408777 L70,56.591223 C70,58.8037417 68.450933,61.5089614 66.5482786,62.6286649 L38.4517214,79.1633623 C36.5453883,80.2852308 33.450933,80.2830659 31.5482786,79.1633623 L3.45172136,62.6286649 C1.54538829,61.5067965 0,58.8007696 0,56.591223 L0,23.408777 Z" id="area" fill="#FFFFFF"></path>
                        <path d="M39,48 L31,48 C26.581722,48 23,44.418278 23,40 C23,35.581722 26.581722,32 31,32 L39,32 C43.418278,32 47,35.581722 47,40 C47,44.418278 43.418278,48 39,48 L39,48 Z M39,34 L31,34 C27.6862915,34 25,36.6862915 25,40 C25,43.3137085 27.6862915,46 31,46 L39,46 C42.3137085,46 45,43.3137085 45,40 C45,36.6862915 42.3137085,34 39,34 L39,34 Z M32,44 C29.790861,44 28,42.209139 28,40 C28,37.790861 29.790861,36 32,36 C34.209139,36 36,37.790861 36,40 C36,42.209139 34.209139,44 32,44 L32,44 Z M32,38 C30.8954305,38 30,38.8954305 30,40 C30,41.1045695 30.8954305,42 32,42 C33.1045695,42 34,41.1045695 34,40 C34,38.8954305 33.1045695,38 32,38 L32,38 Z" id="tumbler" fill="#478FB3"></path>
                    </g>
                </g>
            </g>
        </g>
    </g>
</svg>