<?xml version="1.0" encoding="UTF-8"?>
<svg width="70px" height="80px" viewBox="0 0 70 80" version="1.1" xmlns="http://www.w3.org/2000/svg" xmlns:xlink="http://www.w3.org/1999/xlink">
    <!-- Generator: Sketch 44 (41411) - http://www.bohemiancoding.com/sketch -->
    <title>icon_adv09</title>
    <desc>Created with Sketch.</desc>
    <defs></defs>
    <g id="template" stroke="none" stroke-width="1" fill="none" fill-rule="evenodd">
        <g id="page" transform="translate(-705.000000, -3826.000000)">
            <g id="advantages" transform="translate(0.000000, 3378.000000)">
                <g id="12" transform="translate(705.000000, 448.000000)">
                    <g id="Group-13">
                        <path d="M0,23.408777 C0,21.1962583 1.54906698,18.4910386 3.45172136,17.3713351 L31.5482786,0.836637651 C33.4546117,-0.285230776 36.549067,-0.283065888 38.4517214,0.836637651 L66.5482786,17.3713351 C68.4546117,18.4932035 70,21.1992304 70,23.408777 L70,56.591223 C70,58.8037417 68.450933,61.5089614 66.5482786,62.6286649 L38.4517214,79.1633623 C36.5453883,80.2852308 33.450933,80.2830659 31.5482786,79.1633623 L3.45172136,62.6286649 C1.54538829,61.5067965 0,58.8007696 0,56.591223 L0,23.408777 Z" id="area" fill="#FFFFFF"></path>
                        <path d="M45,52 L39,52 C37.8954305,52 37,51.1045695 37,50 L37,44 C37,42.8954305 37.8954305,42 39,42 L45,42 C46.1045695,42 47,42.8954305 47,44 L47,50 C47,51.1045695 46.1045695,52 45,52 L45,52 Z M45,44 L39,44 L39,50 L45,50 L45,44 L45,44 Z M45,38 L39,38 C37.8954305,38 37,37.1045695 37,36 L37,30 C37,28.8954305 37.8954305,28 39,28 L45,28 C46.1045695,28 47,28.8954305 47,30 L47,36 C47,37.1045695 46.1045695,38 45,38 L45,38 Z M45,30 L39,30 L39,36 L45,36 L45,30 L45,30 Z M31,52 L25,52 C23.8954305,52 23,51.1045695 23,50 L23,44 C23,42.8954305 23.8954305,42 25,42 L31,42 C32.1045695,42 33,42.8954305 33,44 L33,50 C33,51.1045695 32.1045695,52 31,52 L31,52 Z M31,44 L25,44 L25,50 L31,50 L31,44 L31,44 Z M31,38 L25,38 C23.8954305,38 23,37.1045695 23,36 L23,30 C23,28.8954305 23.8954305,28 25,28 L31,28 C32.1045695,28 33,28.8954305 33,30 L33,36 C33,37.1045695 32.1045695,38 31,38 L31,38 Z M31,30 L25,30 L25,36 L31,36 L31,30 L31,30 Z" id="grid" fill="#478FB3"></path>
                    </g>
                </g>
            </g>
        </g>
    </g>
</svg>