<?xml version="1.0" encoding="UTF-8"?>
<svg width="17px" height="15px" viewBox="0 0 17 15" version="1.1" xmlns="http://www.w3.org/2000/svg" xmlns:xlink="http://www.w3.org/1999/xlink">
    <!-- Generator: Sketch 44 (41411) - http://www.bohemiancoding.com/sketch -->
    <title>warning</title>
    <desc>Created with Sketch.</desc>
    <defs></defs>
    <g id="template" stroke="none" stroke-width="1" fill="none" fill-rule="evenodd">
        <g id="page" transform="translate(-858.000000, -2970.000000)" fill-rule="nonzero" fill="#CC0000">
            <g id="for_dev" transform="translate(0.000000, 2038.000000)">
                <g id="without_with" transform="translate(0.000000, 780.000000)">
                    <g id="description" transform="translate(858.000000, 150.000000)">
                        <g id="Group" transform="translate(0.000000, 2.000000)">
                            <path d="M8.50017812,1.71536394 C8.98533875,1.71536394 9.46790494,2.01898336 9.83545088,2.6262222 L14.948231,11.0778203 C15.6841877,12.2914403 15.1160049,13.2846361 13.6890619,13.2846361 L3.31129433,13.2846361 C1.88435129,13.2846361 1.31616852,12.2905827 2.0521252,11.0778203 L7.16490536,2.6262222 C7.53245129,2.01898336 8.01501748,1.71536394 8.50017812,1.71536394 L8.50017812,1.71536394 Z M8.50017812,0 C7.37937922,0 6.35370986,0.634684659 5.68174941,1.74195208 L0.568969255,10.1952656 C-0.110774521,11.3179713 -0.185148522,12.5152953 0.365737973,13.4801875 C0.916624468,14.4450798 1.99072341,15 3.31129433,15 L13.6890619,15 C15.0096328,15 16.0845966,14.4459374 16.6346183,13.4810452 C17.1846399,12.516153 17.1111308,11.318829 16.431387,10.1961233 L11.3186068,1.74452513 C10.6466464,0.634684659 9.62097702,0 8.50017812,0 Z M8.50017812,11.8265767 C9.12108875,11.8265767 9.62443627,11.3273802 9.62443627,10.7115901 C9.62443627,10.0958001 9.12108875,9.59660358 8.50017812,9.59660358 C7.87926749,9.59660358 7.37591997,10.0958001 7.37591997,10.7115901 C7.37591997,11.3273802 7.87926749,11.8265767 8.50017812,11.8265767 Z M9.79739906,5.56549831 C9.79739906,4.85362228 9.21710889,4.27897536 8.50017812,4.27897536 C7.78324734,4.27897536 7.20295717,4.85362228 7.20295717,5.56549831 C7.20295717,5.73617703 7.23841455,5.8991366 7.29895152,6.04751558 C7.77805846,7.22768597 8.50017812,8.9962262 8.50017812,8.9962262 C8.50017812,8.9962262 9.22229778,7.22768597 9.70313434,6.04751558 C9.76194169,5.8991366 9.79739906,5.73617703 9.79739906,5.56549831 Z" id="warning"></path>
                        </g>
                    </g>
                </g>
            </g>
        </g>
    </g>
</svg>