<?xml version="1.0" encoding="UTF-8"?>
<svg width="70px" height="80px" viewBox="0 0 70 80" version="1.1" xmlns="http://www.w3.org/2000/svg" xmlns:xlink="http://www.w3.org/1999/xlink">
    <!-- Generator: Sketch 44 (41411) - http://www.bohemiancoding.com/sketch -->
    <title>icon_adv16</title>
    <desc>Created with Sketch.</desc>
    <defs></defs>
    <g id="template" stroke="none" stroke-width="1" fill="none" fill-rule="evenodd">
        <g id="page" transform="translate(-1005.000000, -3586.000000)">
            <g id="advantages" transform="translate(0.000000, 3378.000000)">
                <g id="05" transform="translate(1005.000000, 208.000000)">
                    <g id="Group-6">
                        <path d="M0,23.408777 C0,21.1962583 1.54906698,18.4910386 3.45172136,17.3713351 L31.5482786,0.836637651 C33.4546117,-0.285230776 36.549067,-0.283065888 38.4517214,0.836637651 L66.5482786,17.3713351 C68.4546117,18.4932035 70,21.1992304 70,23.408777 L70,56.591223 C70,58.8037417 68.450933,61.5089614 66.5482786,62.6286649 L38.4517214,79.1633623 C36.5453883,80.2852308 33.450933,80.2830659 31.5482786,79.1633623 L3.45172136,62.6286649 C1.54538829,61.5067965 0,58.8007696 0,56.591223 L0,23.408777 Z" id="area" fill="#FFFFFF"></path>
                        <path d="M45,52 L25,52 C23.8954305,52 23,51.1045695 23,50 L23,30 C23,28.8954305 23.8954305,28 25,28 L45,28 C46.1045695,28 47,28.8954305 47,30 L47,50 C47,51.1045695 46.1045695,52 45,52 L45,52 Z M45,30 L25,30 L25,45.584 L30.28,40.319 C30.6800466,39.9271959 31.3199534,39.9271959 31.72,40.319 L36.03,44.619 L44.58,39.147 C44.7085048,39.0733933 44.8521988,39.0302852 45,39.021 L45,30 L45,30 Z M45,41.39 L36.73,46.684 C36.72,46.691 36.72,46.701 36.71,46.708 L36.71,46.708 C36.5563436,46.8534174 36.3600288,46.9456152 36.15,46.971 C35.8272024,47.0556616 35.4845239,46.9466275 35.27,46.691 L31,42.445 L25.72,47.711 C25.528429,47.9005192 25.2694724,48.0062598 25,48.005 L25,50 L45,50 L45,41.39 L45,41.39 Z M30,37 C28.8954305,37 28,36.1045695 28,35 C28,33.8954305 28.8954305,33 30,33 C31.1045695,33 32,33.8954305 32,35 C32,36.1045695 31.1045695,37 30,37 L30,37 Z" id="picture" fill="#478FB3"></path>
                    </g>
                </g>
            </g>
        </g>
    </g>
</svg>