<?xml version="1.0" encoding="UTF-8"?>
<svg width="70px" height="80px" viewBox="0 0 70 80" version="1.1" xmlns="http://www.w3.org/2000/svg" xmlns:xlink="http://www.w3.org/1999/xlink">
    <!-- Generator: Sketch 44 (41411) - http://www.bohemiancoding.com/sketch -->
    <title>icon_adv04</title>
    <desc>Created with Sketch.</desc>
    <defs></defs>
    <g id="template" stroke="none" stroke-width="1" fill="none" fill-rule="evenodd">
        <g id="page" transform="translate(-1005.000000, -3946.000000)">
            <g id="advantages" transform="translate(0.000000, 3378.000000)">
                <g id="17" transform="translate(1005.000000, 568.000000)">
                    <g id="Group-18">
                        <path d="M0,23.408777 C0,21.1962583 1.54906698,18.4910386 3.45172136,17.3713351 L31.5482786,0.836637651 C33.4546117,-0.285230776 36.549067,-0.283065888 38.4517214,0.836637651 L66.5482786,17.3713351 C68.4546117,18.4932035 70,21.1992304 70,23.408777 L70,56.591223 C70,58.8037417 68.450933,61.5089614 66.5482786,62.6286649 L38.4517214,79.1633623 C36.5453883,80.2852308 33.450933,80.2830659 31.5482786,79.1633623 L3.45172136,62.6286649 C1.54538829,61.5067965 0,58.8007696 0,56.591223 L0,23.408777 Z" id="area" fill="#FFFFFF"></path>
                        <path d="M35,52 C28.372583,52 23,46.627417 23,40 C23,33.372583 28.372583,28 35,28 C41.627417,28 47,33.372583 47,40 C47,46.627417 41.627417,52 35,52 L35,52 Z M25,40 C24.9993331,45.3287425 29.1773146,49.7219425 34.4993753,49.9887125 C39.8214361,50.2554824 44.4177927,46.3020988 44.95,41 L35,41 C34.4477153,41 34,40.5522847 34,40 L34,40 L34,30.051 C28.8904704,30.564527 25.000449,34.8647295 25,40 L25,40 Z M36,30.051 L36,39 L44.95,39 C44.4714164,34.2696106 40.7304428,30.529055 36,30.051 L36,30.051 Z" id="graph3" fill="#478FB3"></path>
                    </g>
                </g>
            </g>
        </g>
    </g>
</svg>