<?xml version="1.0" encoding="UTF-8"?>
<svg width="70px" height="80px" viewBox="0 0 70 80" version="1.1" xmlns="http://www.w3.org/2000/svg" xmlns:xlink="http://www.w3.org/1999/xlink">
    <!-- Generator: Sketch 44 (41411) - http://www.bohemiancoding.com/sketch -->
    <title>icon_adv14</title>
    <desc>Created with Sketch.</desc>
    <defs></defs>
    <g id="template" stroke="none" stroke-width="1" fill="none" fill-rule="evenodd">
        <g id="page" transform="translate(-405.000000, -3706.000000)">
            <g id="advantages" transform="translate(0.000000, 3378.000000)">
                <g id="07" transform="translate(405.000000, 328.000000)">
                    <g id="Group-8">
                        <path d="M0,23.408777 C0,21.1962583 1.54906698,18.4910386 3.45172136,17.3713351 L31.5482786,0.836637651 C33.4546117,-0.285230776 36.549067,-0.283065888 38.4517214,0.836637651 L66.5482786,17.3713351 C68.4546117,18.4932035 70,21.1992304 70,23.408777 L70,56.591223 C70,58.8037417 68.450933,61.5089614 66.5482786,62.6286649 L38.4517214,79.1633623 C36.5453883,80.2852308 33.450933,80.2830659 31.5482786,79.1633623 L3.45172136,62.6286649 C1.54538829,61.5067965 0,58.8007696 0,56.591223 L0,23.408777 Z" id="area" fill="#FFFFFF"></path>
                        <path d="M35,52 C28.372583,52 23,46.627417 23,40 C23,33.372583 28.372583,28 35,28 C41.627417,28 47,33.372583 47,40 C46.9939355,46.6249034 41.6249034,51.9939355 35,52 L35,52 Z M35,29.994 C29.47436,29.9962089 24.9965279,34.4770254 24.9980004,40.0026656 C24.9994728,45.5283058 29.4796924,50.0067351 35.0053328,50.0059991 C40.5309732,50.0052631 45.0099996,45.5256404 45.01,40 C45.0028337,34.4752485 40.524754,29.9989582 35,29.994 L35,29.994 Z M36.3435429,42.243 C37.3435429,41.243 39.9635429,35.003 39.9635429,35.003 C39.9635429,35.003 33.7235429,37.623 32.7235429,38.623 C31.7486848,39.6267807 31.760382,41.2273108 32.7498071,42.2167358 C33.7392321,43.2061609 35.3397622,43.2178581 36.3435429,42.243 L36.3435429,42.243 Z M34.3077916,39.359 C35.1752477,38.8314363 36.0850451,38.3768721 37.0277916,38 C36.6533218,38.9424009 36.1983038,39.850764 35.6677916,40.715 C35.4290259,40.9741567 35.0675727,41.0818522 34.7259029,40.9956372 C34.3842331,40.9094222 34.117151,40.6431256 34.02993,40.3017112 C33.9427089,39.9602969 34.0493394,39.598528 34.3077916,39.359 L34.3077916,39.359 Z" id="speedo2" fill="#478FB3"></path>
                    </g>
                </g>
            </g>
        </g>
    </g>
</svg>