<?xml version="1.0" encoding="UTF-8"?>
<svg width="70px" height="80px" viewBox="0 0 70 80" version="1.1" xmlns="http://www.w3.org/2000/svg" xmlns:xlink="http://www.w3.org/1999/xlink">
    <!-- Generator: Sketch 44 (41411) - http://www.bohemiancoding.com/sketch -->
    <title>icon_adv15</title>
    <desc>Created with Sketch.</desc>
    <defs></defs>
    <g id="template" stroke="none" stroke-width="1" fill="none" fill-rule="evenodd">
        <g id="page" transform="translate(-1305.000000, -3586.000000)">
            <g id="advantages" transform="translate(0.000000, 3378.000000)">
                <g id="06" transform="translate(1305.000000, 208.000000)">
                    <g id="Group-7">
                        <path d="M0,23.408777 C0,21.1962583 1.54906698,18.4910386 3.45172136,17.3713351 L31.5482786,0.836637651 C33.4546117,-0.285230776 36.549067,-0.283065888 38.4517214,0.836637651 L66.5482786,17.3713351 C68.4546117,18.4932035 70,21.1992304 70,23.408777 L70,56.591223 C70,58.8037417 68.450933,61.5089614 66.5482786,62.6286649 L38.4517214,79.1633623 C36.5453883,80.2852308 33.450933,80.2830659 31.5482786,79.1633623 L3.45172136,62.6286649 C1.54538829,61.5067965 0,58.8007696 0,56.591223 L0,23.408777 Z" id="area" fill="#FFFFFF"></path>
                        <path d="M45,51 L25,51 C23.8954305,51 23,50.1045695 23,49 L23,49 L23,48 L23,48 L23,31 C23,29.8954305 23.8954305,29 25,29 L33,29 C34.1045695,29 35,29.8954305 35,31 L45,31 C46.1045695,31 47,31.8954305 47,33 L47,49 C47,50.1045695 46.1045695,51 45,51 L45,51 Z M45,33 L33,33 L33,31 L25,31 L25,35 L45,35 L45,33 L45,33 Z M45,37 L25,37 L25,48 L25,48 L25,49 L45,49 L45,48 L45,48 L45,37 L45,37 Z" id="folder" fill="#478FB3"></path>
                    </g>
                </g>
            </g>
        </g>
    </g>
</svg>