<?xml version="1.0" encoding="UTF-8"?>
<svg width="70px" height="80px" viewBox="0 0 70 80" version="1.1" xmlns="http://www.w3.org/2000/svg" xmlns:xlink="http://www.w3.org/1999/xlink">
    <!-- Generator: Sketch 44 (41411) - http://www.bohemiancoding.com/sketch -->
    <title>icon_adv03</title>
    <desc>Created with Sketch.</desc>
    <defs></defs>
    <g id="template" stroke="none" stroke-width="1" fill="none" fill-rule="evenodd">
        <g id="page" transform="translate(-1305.000000, -3946.000000)">
            <g id="advantages" transform="translate(0.000000, 3378.000000)">
                <g id="18" transform="translate(1305.000000, 568.000000)">
                    <g id="Group-19">
                        <path d="M0,23.408777 C0,21.1962583 1.54906698,18.4910386 3.45172136,17.3713351 L31.5482786,0.836637651 C33.4546117,-0.285230776 36.549067,-0.283065888 38.4517214,0.836637651 L66.5482786,17.3713351 C68.4546117,18.4932035 70,21.1992304 70,23.408777 L70,56.591223 C70,58.8037417 68.450933,61.5089614 66.5482786,62.6286649 L38.4517214,79.1633623 C36.5453883,80.2852308 33.450933,80.2830659 31.5482786,79.1633623 L3.45172136,62.6286649 C1.54538829,61.5067965 0,58.8007696 0,56.591223 L0,23.408777 Z" id="area" fill="#FFFFFF"></path>
                        <path d="M47.0049571,52.0092271 L41.1149571,50.5362271 C36.1041071,53.3396163 29.79327,52.0174722 26.3290476,47.4385234 C22.8648252,42.8595746 23.308823,36.4270326 27.3693075,32.3674668 C31.4297919,28.3079009 37.8624342,27.8653587 42.4405991,31.3306171 C47.0187639,34.7958754 48.3394801,41.1070115 45.5349571,46.1172271 L47.0049571,52.0092271 Z M42.2149571,33.7642271 C38.6224141,30.1636621 32.8335772,30.0247441 29.0724596,33.4488394 C25.311342,36.8729346 24.9077913,42.6493589 28.1562715,46.5631563 C31.4047516,50.4769538 37.1566722,51.1442925 41.2149571,48.0782271 L44.0049571,49.0092271 L43.0749571,46.2172271 C45.9351806,42.4329742 45.5682255,37.1193784 42.2149571,33.7642271 L42.2149571,33.7642271 Z M40.5049571,42.0092271 C39.67653,42.0092271 39.0049571,41.3376542 39.0049571,40.5092271 C39.0049571,39.6808 39.67653,39.0092271 40.5049571,39.0092271 C41.3333842,39.0092271 42.0049571,39.6808 42.0049571,40.5092271 C42.0049571,41.3376542 41.3333842,42.0092271 40.5049571,42.0092271 L40.5049571,42.0092271 Z M35.5049571,42.0092271 C34.67653,42.0092271 34.0049571,41.3376542 34.0049571,40.5092271 C34.0049571,39.6808 34.67653,39.0092271 35.5049571,39.0092271 C36.3333842,39.0092271 37.0049571,39.6808 37.0049571,40.5092271 C37.0049571,41.3376542 36.3333842,42.0092271 35.5049571,42.0092271 L35.5049571,42.0092271 Z M30.5049571,42.0092271 C29.67653,42.0092271 29.0049571,41.3376542 29.0049571,40.5092271 C29.0049571,39.6808 29.67653,39.0092271 30.5049571,39.0092271 C31.3333842,39.0092271 32.0049571,39.6808 32.0049571,40.5092271 C32.0049571,41.3376542 31.3333842,42.0092271 30.5049571,42.0092271 L30.5049571,42.0092271 Z" id="message" fill="#478FB3"></path>
                    </g>
                </g>
            </g>
        </g>
    </g>
</svg>