<?xml version="1.0" encoding="UTF-8"?>
<svg width="70px" height="80px" viewBox="0 0 70 80" version="1.1" xmlns="http://www.w3.org/2000/svg" xmlns:xlink="http://www.w3.org/1999/xlink">
    <!-- Generator: Sketch 44 (41411) - http://www.bohemiancoding.com/sketch -->
    <title>icon_adv13</title>
    <desc>Created with Sketch.</desc>
    <defs></defs>
    <g id="template" stroke="none" stroke-width="1" fill="none" fill-rule="evenodd">
        <g id="page" transform="translate(-705.000000, -3706.000000)">
            <g id="advantages" transform="translate(0.000000, 3378.000000)">
                <g id="08" transform="translate(705.000000, 328.000000)">
                    <g id="Group-9">
                        <path d="M0,23.408777 C0,21.1962583 1.54906698,18.4910386 3.45172136,17.3713351 L31.5482786,0.836637651 C33.4546117,-0.285230776 36.549067,-0.283065888 38.4517214,0.836637651 L66.5482786,17.3713351 C68.4546117,18.4932035 70,21.1992304 70,23.408777 L70,56.591223 C70,58.8037417 68.450933,61.5089614 66.5482786,62.6286649 L38.4517214,79.1633623 C36.5453883,80.2852308 33.450933,80.2830659 31.5482786,79.1633623 L3.45172136,62.6286649 C1.54538829,61.5067965 0,58.8007696 0,56.591223 L0,23.408777 Z" id="area" fill="#FFFFFF"></path>
                        <path d="M45,52 L25,52 C23.8954305,52 23,51.1045695 23,50 L23,34 C23,32.8954305 23.8954305,32 25,32 L30,32 L30,30 C30,28.8954305 30.8954305,28 32,28 L38,28 C39.1045695,28 40,28.8954305 40,30 L40,32 L45,32 C46.1045695,32 47,32.8954305 47,34 L47,50 C47,51.1045695 46.1045695,52 45,52 L45,52 Z M38,30 L32,30 L32,32 L38,32 L38,30 L38,30 Z M45,43 L40,43 C40,44.1045695 39.1045695,45 38,45 L32,45 C30.8954305,45 30,44.1045695 30,43 L25,43 L25,41 L30,41 C30,39.8954305 30.8954305,39 32,39 L38,39 C39.1045695,39 40,39.8954305 40,41 L45,41 L45,34 L25,34 L25,50 L45,50 L45,43 L45,43 Z M38,42 C38,41.4477153 37.5522847,41 37,41 L33,41 C32.4477153,41 32,41.4477153 32,42 C32,42.5522847 32.4477153,43 33,43 L37,43 C37.5522847,43 38,42.5522847 38,42 L38,42 Z" id="case" fill="#478FB3"></path>
                    </g>
                </g>
            </g>
        </g>
    </g>
</svg>