<?xml version="1.0" encoding="UTF-8"?>
<svg width="70px" height="80px" viewBox="0 0 70 80" version="1.1" xmlns="http://www.w3.org/2000/svg" xmlns:xlink="http://www.w3.org/1999/xlink">
    <!-- Generator: Sketch 44 (41411) - http://www.bohemiancoding.com/sketch -->
    <title>icon_adv01</title>
    <desc>Created with Sketch.</desc>
    <defs></defs>
    <g id="template" stroke="none" stroke-width="1" fill="none" fill-rule="evenodd">
        <g id="page" transform="translate(-705.000000, -4066.000000)">
            <g id="advantages" transform="translate(0.000000, 3378.000000)">
                <g id="20" transform="translate(705.000000, 688.000000)">
                    <g id="Group-21">
                        <path d="M0,23.408777 C0,21.1962583 1.54906698,18.4910386 3.45172136,17.3713351 L31.5482786,0.836637651 C33.4546117,-0.285230776 36.549067,-0.283065888 38.4517214,0.836637651 L66.5482786,17.3713351 C68.4546117,18.4932035 70,21.1992304 70,23.408777 L70,56.591223 C70,58.8037417 68.450933,61.5089614 66.5482786,62.6286649 L38.4517214,79.1633623 C36.5453883,80.2852308 33.450933,80.2830659 31.5482786,79.1633623 L3.45172136,62.6286649 C1.54538829,61.5067965 0,58.8007696 0,56.591223 L0,23.408777 Z" id="area" fill="#FFFFFF"></path>
                        <path d="M43.0007678,45.4864642 L43.0007678,43.0044642 L42.8897678,43.0044642 C45.0788454,40.876937 45.6336151,37.5746985 44.2599316,34.8486342 C42.8862481,32.12257 39.9020564,30.6036397 36.8896101,31.0971981 C33.8771638,31.5907565 31.5337069,33.9825673 31.1017678,37.0044642 L29.0007678,37.0044642 C27.1923698,36.9991403 25.6067478,38.211321 25.1375777,39.9578064 C24.6684077,41.7042918 25.4331423,43.5478644 27.0007678,44.4494642 L27.0007678,46.6374642 C24.2461324,45.6687843 22.5923598,42.8539584 23.0871198,39.9761868 C23.5818799,37.0984152 26.0807834,34.9975368 29.0007678,35.0044642 C29.1737678,35.0044642 29.3357678,35.0404642 29.5007678,35.0554642 C30.7839429,31.3493123 34.3193982,28.9008415 38.2400674,29.0030842 C42.1607366,29.1053269 45.5637717,31.7347386 46.652037,35.5027327 C47.7403023,39.2707267 46.2631932,43.309613 43.0007678,45.4864642 L43.0007678,45.4864642 Z M34.2297678,39.3924642 C34.2427678,39.3764642 34.2617678,39.3684642 34.2757678,39.3534642 C34.3470999,39.2663418 34.4338839,39.1931179 34.5317678,39.1374642 L34.5317678,39.1374642 C34.6452802,39.0716482 34.7727498,39.0336129 34.9037678,39.0264642 L34.9207678,39.0264642 L34.9537678,39.0204642 C34.9697678,39.0204642 34.9837678,39.0104642 34.9997678,39.0104642 C35.0158127,39.01167 35.0316218,39.0150337 35.0467678,39.0204642 C35.0577678,39.0204642 35.0677678,39.0204642 35.0787678,39.0264642 C35.0888699,39.0295143 35.0992572,39.0315247 35.1097678,39.0324642 C35.1980129,39.0357406 35.2851432,39.0533018 35.3677678,39.0844642 C35.4037678,39.0994642 35.4317678,39.1224642 35.4677678,39.1404642 C35.5371055,39.1753375 35.6016409,39.2190334 35.6597678,39.2704642 C35.690174,39.3042734 35.7179232,39.3403808 35.7427678,39.3784642 L39.5347678,41.9374642 C40.0013655,42.2935233 40.1476691,42.9317097 39.8827678,43.4554642 C39.7843915,43.7004532 39.5811105,43.888252 39.3291113,43.9669533 C39.0771121,44.0456546 38.8030839,44.0069231 38.5827678,43.8614642 L36.0007678,42.1134642 L36.0007678,50.0044642 C36.0007678,50.556749 35.5530525,51.0044642 35.0007678,51.0044642 C34.448483,51.0044642 34.0007678,50.556749 34.0007678,50.0044642 L34.0007678,42.1134642 L31.4187678,43.8554642 C31.1983567,44.0005459 30.9244739,44.0390626 30.6725972,43.9603995 C30.4207205,43.8817365 30.2174368,43.6941971 30.1187678,43.4494642 C29.8547101,42.9256071 30.0008848,42.2879832 30.4667678,41.9314642 L34.2297678,39.3924642 Z" id="cloud-up" fill="#478FB3"></path>
                    </g>
                </g>
            </g>
        </g>
    </g>
</svg>