<?xml version="1.0" encoding="UTF-8"?>
<svg width="70px" height="80px" viewBox="0 0 70 80" version="1.1" xmlns="http://www.w3.org/2000/svg" xmlns:xlink="http://www.w3.org/1999/xlink">
    <!-- Generator: Sketch 44 (41411) - http://www.bohemiancoding.com/sketch -->
    <title>icon_adv12</title>
    <desc>Created with Sketch.</desc>
    <defs></defs>
    <g id="template" stroke="none" stroke-width="1" fill="none" fill-rule="evenodd">
        <g id="page" transform="translate(-1005.000000, -3706.000000)">
            <g id="advantages" transform="translate(0.000000, 3378.000000)">
                <g id="09" transform="translate(1005.000000, 328.000000)">
                    <g id="Group-10">
                        <path d="M0,23.408777 C0,21.1962583 1.54906698,18.4910386 3.45172136,17.3713351 L31.5482786,0.836637651 C33.4546117,-0.285230776 36.549067,-0.283065888 38.4517214,0.836637651 L66.5482786,17.3713351 C68.4546117,18.4932035 70,21.1992304 70,23.408777 L70,56.591223 C70,58.8037417 68.450933,61.5089614 66.5482786,62.6286649 L38.4517214,79.1633623 C36.5453883,80.2852308 33.450933,80.2830659 31.5482786,79.1633623 L3.45172136,62.6286649 C1.54538829,61.5067965 0,58.8007696 0,56.591223 L0,23.408777 Z" id="area" fill="#FFFFFF"></path>
                        <path d="M46,41.0008142 L38.86,41.0008142 C38.4108389,42.7660216 36.8214562,44.0016283 35,44.0016283 C33.1785438,44.0016283 31.5891611,42.7660216 31.14,41.0008142 L24,41.0008142 C23.4477153,41.0008142 23,40.5530989 23,40.0008142 C23,39.4485294 23.4477153,39.0008142 24,39.0008142 L31.14,39.0008142 C31.5891611,37.2356068 33.1785438,36 35,36 C36.8214562,36 38.4108389,37.2356068 38.86,39.0008142 L46,39.0008142 C46.5522847,39.0008142 47,39.4485294 47,40.0008142 C47,40.5530989 46.5522847,41.0008142 46,41.0008142 L46,41.0008142 Z M35,38.0008142 C33.8954305,38.0008142 33,38.8962447 33,40.0008142 C33,41.1053837 33.8954305,42.0008142 35,42.0008142 C36.1045695,42.0008142 37,41.1053837 37,40.0008142 C37,38.8962447 36.1045695,38.0008142 35,38.0008142 L35,38.0008142 Z M46,33.0008142 L44.86,33.0008142 C44.4108389,34.7660216 42.8214562,36.0016283 41,36.0016283 C39.1785438,36.0016283 37.5891611,34.7660216 37.14,33.0008142 L24,33.0008142 C23.4477153,33.0008142 23,32.5530989 23,32.0008142 C23,31.4485294 23.4477153,31.0008142 24,31.0008142 L37.14,31.0008142 C37.5891611,29.2356068 39.1785438,28 41,28 C42.8214562,28 44.4108389,29.2356068 44.86,31.0008142 L46,31.0008142 C46.5522847,31.0008142 47,31.4485294 47,32.0008142 C47,32.5530989 46.5522847,33.0008142 46,33.0008142 L46,33.0008142 Z M41,30.0008142 C39.8954305,30.0008142 39,30.8962447 39,32.0008142 C39,33.1053837 39.8954305,34.0008142 41,34.0008142 C42.1045695,34.0008142 43,33.1053837 43,32.0008142 C43,30.8962447 42.1045695,30.0008142 41,30.0008142 L41,30.0008142 Z M24,47.0008142 L25.14,47.0008142 C25.5891611,45.2356068 27.1785438,44 29,44 C30.8214562,44 32.4108389,45.2356068 32.86,47.0008142 L46,47.0008142 C46.5522847,47.0008142 47,47.4485294 47,48.0008142 C47,48.5530989 46.5522847,49.0008142 46,49.0008142 L32.86,49.0008142 C32.4108389,50.7660216 30.8214562,52.0016283 29,52.0016283 C27.1785438,52.0016283 25.5891611,50.7660216 25.14,49.0008142 L24,49.0008142 C23.4477153,49.0008142 23,48.5530989 23,48.0008142 C23,47.4485294 23.4477153,47.0008142 24,47.0008142 L24,47.0008142 Z M29,50.0008142 C30.1045695,50.0008142 31,49.1053837 31,48.0008142 C31,46.8962447 30.1045695,46.0008142 29,46.0008142 C27.8954305,46.0008142 27,46.8962447 27,48.0008142 C27,49.1053837 27.8954305,50.0008142 29,50.0008142 L29,50.0008142 Z" id="sliders" fill="#478FB3"></path>
                    </g>
                </g>
            </g>
        </g>
    </g>
</svg>