<?xml version="1.0" encoding="UTF-8"?>
<svg width="70px" height="80px" viewBox="0 0 70 80" version="1.1" xmlns="http://www.w3.org/2000/svg" xmlns:xlink="http://www.w3.org/1999/xlink">
    <!-- Generator: Sketch 44 (41411) - http://www.bohemiancoding.com/sketch -->
    <title>icon_adv17</title>
    <desc>Created with Sketch.</desc>
    <defs></defs>
    <g id="template" stroke="none" stroke-width="1" fill="none" fill-rule="evenodd">
        <g id="page" transform="translate(-705.000000, -3586.000000)">
            <g id="advantages" transform="translate(0.000000, 3378.000000)">
                <g id="04" transform="translate(705.000000, 208.000000)">
                    <g id="Group-5">
                        <path d="M0,23.408777 C0,21.1962583 1.54906698,18.4910386 3.45172136,17.3713351 L31.5482786,0.836637651 C33.4546117,-0.285230776 36.549067,-0.283065888 38.4517214,0.836637651 L66.5482786,17.3713351 C68.4546117,18.4932035 70,21.1992304 70,23.408777 L70,56.591223 C70,58.8037417 68.450933,61.5089614 66.5482786,62.6286649 L38.4517214,79.1633623 C36.5453883,80.2852308 33.450933,80.2830659 31.5482786,79.1633623 L3.45172136,62.6286649 C1.54538829,61.5067965 0,58.8007696 0,56.591223 L0,23.408777 Z" id="area" fill="#FFFFFF"></path>
                        <path d="M35.019483,52.0004474 C30.3243504,52.0080012 26.056085,49.2766448 24.0959516,45.0102406 C22.1358182,40.7438365 22.8439139,35.7261678 25.9081411,32.1688038 C28.9723683,28.6114397 33.8297962,27.1679053 38.339483,28.4744474 L37.259483,30.2624474 C33.1156927,29.3100382 28.8227478,31.0820573 26.5572516,34.6800579 C24.2917553,38.2780586 24.5491384,42.9152108 27.1989029,46.240392 C29.8486673,49.5655732 34.3113485,50.8516151 38.3242839,49.4464704 C42.3372192,48.0413256 45.0228386,44.2522789 45.019483,40.0004474 C45.019578,38.8569505 44.8199101,37.7222274 44.429483,36.6474474 L45.699483,34.5394474 C47.605187,38.2582705 47.4376536,42.7009459 45.2572863,46.265683 C43.076919,49.8304202 39.1981605,52.0031291 35.019483,52.0004474 L35.019483,52.0004474 Z M35.939483,43.3694474 C35.894172,43.5030051 35.8189208,43.6244332 35.719483,43.7244474 C35.5308159,43.9149327 35.2662593,44.0100996 34.999483,43.9834474 C34.5711031,44.0133434 34.1797892,43.7406726 34.059483,43.3284474 L30.239483,39.5104474 C29.9234981,39.1543382 29.9395142,38.6137403 30.2760271,38.2769624 C30.6125401,37.9401845 31.1531252,37.9237429 31.509483,38.2394474 L34.759483,41.4904474 L42.149483,30.5164474 C42.2788628,30.2797165 42.4984034,30.1053032 42.7582591,30.0328072 C43.0181149,29.9603112 43.2962383,29.9958835 43.529483,30.1314474 C44.0121662,30.4292707 44.1714809,31.056351 43.889483,31.5484474 L35.939483,43.3694474 Z" id="checkmark" fill="#478FB3"></path>
                    </g>
                </g>
            </g>
        </g>
    </g>
</svg>