<?xml version="1.0" encoding="UTF-8"?>
<svg width="70px" height="80px" viewBox="0 0 70 80" version="1.1" xmlns="http://www.w3.org/2000/svg" xmlns:xlink="http://www.w3.org/1999/xlink">
    <!-- Generator: Sketch 44 (41411) - http://www.bohemiancoding.com/sketch -->
    <title>icon_adv07</title>
    <desc>Created with Sketch.</desc>
    <defs></defs>
    <g id="template" stroke="none" stroke-width="1" fill="none" fill-rule="evenodd">
        <g id="page" transform="translate(-1305.000000, -3826.000000)">
            <g id="advantages" transform="translate(0.000000, 3378.000000)">
                <g id="14" transform="translate(1305.000000, 448.000000)">
                    <g id="Group-15">
                        <path d="M0,23.408777 C0,21.1962583 1.54906698,18.4910386 3.45172136,17.3713351 L31.5482786,0.836637651 C33.4546117,-0.285230776 36.549067,-0.283065888 38.4517214,0.836637651 L66.5482786,17.3713351 C68.4546117,18.4932035 70,21.1992304 70,23.408777 L70,56.591223 C70,58.8037417 68.450933,61.5089614 66.5482786,62.6286649 L38.4517214,79.1633623 C36.5453883,80.2852308 33.450933,80.2830659 31.5482786,79.1633623 L3.45172136,62.6286649 C1.54538829,61.5067965 0,58.8007696 0,56.591223 L0,23.408777 Z" id="area" fill="#FFFFFF"></path>
                        <path d="M42,52 L29,52 C27.8954305,52 27,51.1045695 27,50 L27,30 C27,28.8954305 27.8954305,28 29,28 L42,28 C43.1045695,28 44,28.8954305 44,30 L44,50 C44,51.1045695 43.1045695,52 42,52 L42,52 Z M42,30 L29,30 L29,50 L42,50 L42,30 L42,30 Z M32,32 L39,32 C39.5522847,32 40,32.4477153 40,33 L40,44 C40,44.5522847 39.5522847,45 39,45 L32,45 C31.4477153,45 31,44.5522847 31,44 L31,33 C31,32.4477153 31.4477153,32 32,32 L32,32 Z M33,43 L38,43 L38,34 L33,34 L33,43 L33,43 Z M35.5,46 C36.3284271,46 37,46.6715729 37,47.5 C37,48.3284271 36.3284271,49 35.5,49 C34.6715729,49 34,48.3284271 34,47.5 C34,46.6715729 34.6715729,46 35.5,46 L35.5,46 Z" id="iphone" fill="#478FB3"></path>
                    </g>
                </g>
            </g>
        </g>
    </g>
</svg>