<?xml version="1.0" encoding="UTF-8"?>
<svg width="70px" height="80px" viewBox="0 0 70 80" version="1.1" xmlns="http://www.w3.org/2000/svg" xmlns:xlink="http://www.w3.org/1999/xlink">
    <!-- Generator: Sketch 44 (41411) - http://www.bohemiancoding.com/sketch -->
    <title>icon_adv06</title>
    <desc>Created with Sketch.</desc>
    <defs></defs>
    <g id="template" stroke="none" stroke-width="1" fill="none" fill-rule="evenodd">
        <g id="page" transform="translate(-405.000000, -3946.000000)">
            <g id="advantages" transform="translate(0.000000, 3378.000000)">
                <g id="15" transform="translate(405.000000, 568.000000)">
                    <g id="Group-16">
                        <path d="M0,23.408777 C0,21.1962583 1.54906698,18.4910386 3.45172136,17.3713351 L31.5482786,0.836637651 C33.4546117,-0.285230776 36.549067,-0.283065888 38.4517214,0.836637651 L66.5482786,17.3713351 C68.4546117,18.4932035 70,21.1992304 70,23.408777 L70,56.591223 C70,58.8037417 68.450933,61.5089614 66.5482786,62.6286649 L38.4517214,79.1633623 C36.5453883,80.2852308 33.450933,80.2830659 31.5482786,79.1633623 L3.45172136,62.6286649 C1.54538829,61.5067965 0,58.8007696 0,56.591223 L0,23.408777 Z" id="area" fill="#FFFFFF"></path>
                        <path d="M45,43 L34,43 C32.8954305,43 32,42.1045695 32,41 L32,30 C32,28.8954305 32.8954305,28 34,28 L45,28 C46.1045695,28 47,28.8954305 47,30 L47,41 C47,42.1045695 46.1045695,43 45,43 L45,43 Z M45,30 L34,30 L34,41 L45,41 L45,30 L45,30 Z M25,50 L36,50 L36,45 L38,45 L38,50 C38,51.1045695 37.1045695,52 36,52 L25,52 C23.8954305,52 23,51.1045695 23,50 L23,39 C23,37.8954305 23.8954305,37 25,37 L30,37 L30,39 L25,39 L25,50 L25,50 Z" id="minimize" fill="#478FB3"></path>
                    </g>
                </g>
            </g>
        </g>
    </g>
</svg>