<?xml version="1.0" encoding="UTF-8"?>
<svg width="200px" height="60px" viewBox="0 0 200 60" version="1.1" xmlns="http://www.w3.org/2000/svg" xmlns:xlink="http://www.w3.org/1999/xlink">
    <!-- Generator: Sketch 44.1 (41455) - http://www.bohemiancoding.com/sketch -->
    <title>logotype</title>
    <desc>Created with Sketch.</desc>
    <defs></defs>
    <g id="template" stroke="none" stroke-width="1" fill="none" fill-rule="evenodd">
        <g id="page" transform="translate(-405.000000, -30.000000)">
            <g id="navigation">
                <g id="logotype" transform="translate(405.000000, 27.000000)">
                    <g id="name" transform="translate(64.000000, 6.000000)">
                        <path d="M7.529,38 L12.149,31.697 L12.149,38 L12.776,38 L12.776,30.663 L12.138,30.663 L7.54,36.878 L7.54,30.663 L6.913,30.663 L6.913,38 L7.529,38 Z M15.152,38 L15.152,35.503 L18.166,35.503 L18.166,38 L18.738,38 L18.738,32.687 L18.166,32.687 L18.166,34.997 L15.152,34.997 L15.152,32.687 L14.58,32.687 L14.58,38 L15.152,38 Z M21.092,38 L21.092,35.503 L24.106,35.503 L24.106,38 L24.678,38 L24.678,32.687 L24.106,32.687 L24.106,34.997 L21.092,34.997 L21.092,32.687 L20.52,32.687 L20.52,38 L21.092,38 Z M28.704,38.132 C27.153,38.132 26.152,36.889 26.152,35.338 C26.152,33.787 27.153,32.555 28.704,32.555 C30.277,32.555 31.267,33.787 31.267,35.338 C31.267,36.889 30.277,38.132 28.704,38.132 Z M28.704,37.615 C29.958,37.615 30.651,36.526 30.651,35.338 C30.651,34.161 29.958,33.072 28.704,33.072 C27.472,33.072 26.768,34.161 26.768,35.338 C26.768,36.526 27.472,37.615 28.704,37.615 Z M35.513,38 L32.741,38 L32.741,32.687 L35.469,32.687 C36.338,32.687 36.91,33.204 36.91,34.051 C36.91,34.689 36.503,35.129 36.063,35.261 C36.591,35.404 37.009,35.965 37.009,36.559 C37.009,37.45 36.437,38 35.513,38 Z M35.392,37.483 C36.03,37.483 36.404,37.12 36.404,36.515 C36.404,36.009 36.063,35.514 35.392,35.514 L33.313,35.514 L33.313,37.483 L35.392,37.483 Z M35.37,35.008 C35.986,35.008 36.316,34.612 36.316,34.106 C36.316,33.556 35.975,33.193 35.37,33.193 L33.313,33.193 L33.313,35.008 L35.37,35.008 Z M42.641,38 L42.069,38 L42.069,37.373 C41.596,37.89 41.002,38.132 40.265,38.132 C39.352,38.132 38.406,37.505 38.406,36.361 C38.406,35.206 39.341,34.601 40.265,34.601 C41.002,34.601 41.607,34.843 42.069,35.36 L42.069,34.282 C42.069,33.49 41.431,33.061 40.639,33.061 C39.979,33.061 39.462,33.292 38.978,33.842 L38.659,33.446 C39.209,32.852 39.825,32.555 40.705,32.555 C41.783,32.555 42.641,33.072 42.641,34.26 L42.641,38 Z M40.463,37.681 C41.101,37.681 41.695,37.439 42.069,36.955 L42.069,35.789 C41.695,35.305 41.101,35.052 40.463,35.052 C39.583,35.052 39.011,35.613 39.011,36.372 C39.011,37.12 39.583,37.681 40.463,37.681 Z M48.647,39.353 L49.219,39.353 L49.219,37.483 L48.581,37.483 L48.581,32.687 L48.009,32.687 L48.009,37.483 L44.995,37.483 L44.995,32.687 L44.423,32.687 L44.423,38 L48.647,38 L48.647,39.353 Z M51.056,38 L54.092,33.512 L54.092,38 L54.664,38 L54.664,32.687 L54.103,32.687 L51.078,37.109 L51.078,32.687 L50.506,32.687 L50.506,38 L51.056,38 Z M58.69,38.132 C57.139,38.132 56.138,36.889 56.138,35.338 C56.138,33.787 57.139,32.555 58.69,32.555 C60.263,32.555 61.253,33.787 61.253,35.338 C61.253,36.889 60.263,38.132 58.69,38.132 Z M58.69,37.615 C59.944,37.615 60.637,36.526 60.637,35.338 C60.637,34.161 59.944,33.072 58.69,33.072 C57.458,33.072 56.754,34.161 56.754,35.338 C56.754,36.526 57.458,37.615 58.69,37.615 Z M63.299,38 L63.299,35.503 L66.313,35.503 L66.313,38 L66.885,38 L66.885,32.687 L66.313,32.687 L66.313,34.997 L63.299,34.997 L63.299,32.687 L62.727,32.687 L62.727,38 L63.299,38 Z M69.239,38 L69.239,35.503 L72.253,35.503 L72.253,38 L72.825,38 L72.825,32.687 L72.253,32.687 L72.253,34.997 L69.239,34.997 L69.239,32.687 L68.667,32.687 L68.667,38 L69.239,38 Z M78.556,38 L77.984,38 L77.984,37.373 C77.511,37.89 76.917,38.132 76.18,38.132 C75.267,38.132 74.321,37.505 74.321,36.361 C74.321,35.206 75.256,34.601 76.18,34.601 C76.917,34.601 77.522,34.843 77.984,35.36 L77.984,34.282 C77.984,33.49 77.346,33.061 76.554,33.061 C75.894,33.061 75.377,33.292 74.893,33.842 L74.574,33.446 C75.124,32.852 75.74,32.555 76.62,32.555 C77.698,32.555 78.556,33.072 78.556,34.26 L78.556,38 Z M76.378,37.681 C77.016,37.681 77.61,37.439 77.984,36.955 L77.984,35.789 C77.61,35.305 77.016,35.052 76.378,35.052 C75.498,35.052 74.926,35.613 74.926,36.372 C74.926,37.12 75.498,37.681 76.378,37.681 Z M80.855,38 L80.173,38 L81.658,35.822 C80.789,35.767 80.217,35.151 80.217,34.26 C80.217,33.38 80.811,32.687 81.834,32.687 L84.474,32.687 L84.474,38 L83.891,38 L83.891,35.833 L82.274,35.833 L80.855,38 Z M81.878,35.327 L83.891,35.327 L83.891,33.193 L81.878,33.193 C81.196,33.193 80.811,33.633 80.811,34.26 C80.811,34.887 81.174,35.327 81.878,35.327 Z M11.907,51 L11.907,45.687 L11.115,45.687 L9.399,49.999 L7.661,45.687 L6.891,45.687 L6.891,51 L7.463,51 L7.463,46.468 L9.3,51 L9.509,51 L11.324,46.468 L11.324,51 L11.907,51 Z M15.933,51.132 C14.382,51.132 13.381,49.889 13.381,48.338 C13.381,46.787 14.382,45.555 15.933,45.555 C17.506,45.555 18.496,46.787 18.496,48.338 C18.496,49.889 17.506,51.132 15.933,51.132 Z M15.933,50.615 C17.187,50.615 17.88,49.526 17.88,48.338 C17.88,47.161 17.187,46.072 15.933,46.072 C14.701,46.072 13.997,47.161 13.997,48.338 C13.997,49.526 14.701,50.615 15.933,50.615 Z M22.214,50.615 C23.468,50.615 24.161,49.526 24.161,48.327 C24.161,47.161 23.468,46.072 22.214,46.072 C20.982,46.072 20.278,47.161 20.278,48.327 C20.278,49.526 20.982,50.615 22.214,50.615 Z M22.214,51.132 C20.652,51.132 19.673,49.878 19.673,48.096 C19.673,45.511 20.619,44.488 22.522,44.246 C23.721,44.048 24.062,43.894 24.062,43.663 L24.601,43.663 C24.601,44.411 23.567,44.598 22.654,44.741 C20.85,45.016 20.443,45.753 20.212,46.842 C20.564,46.204 21.224,45.555 22.291,45.555 C23.787,45.555 24.766,46.798 24.766,48.327 C24.766,49.878 23.787,51.132 22.214,51.132 Z M26.867,51 L29.903,46.512 L29.903,51 L30.475,51 L30.475,45.687 L29.914,45.687 L26.889,50.109 L26.889,45.687 L26.317,45.687 L26.317,51 L26.867,51 Z M31.564,51.132 C32.477,51.132 32.983,50.417 33.247,48.404 L33.544,46.193 L35.843,46.193 L35.843,51 L36.415,51 L36.415,45.687 L33.027,45.687 L32.675,48.338 C32.444,50.043 32.081,50.637 31.564,50.637 L31.564,51.132 Z M38.197,45.687 L38.769,45.687 L38.769,47.854 L40.837,47.854 C41.893,47.854 42.454,48.58 42.454,49.427 C42.454,50.274 41.893,51 40.837,51 L38.197,51 L38.197,45.687 Z M40.793,48.36 L38.769,48.36 L38.769,50.483 L40.793,50.483 C41.486,50.483 41.849,50.043 41.849,49.427 C41.849,48.811 41.497,48.36 40.793,48.36 Z M44.368,51 L44.368,48.503 L47.382,48.503 L47.382,51 L47.954,51 L47.954,45.687 L47.382,45.687 L47.382,47.997 L44.368,47.997 L44.368,45.687 L43.796,45.687 L43.796,51 L44.368,51 Z M53.685,51 L53.113,51 L53.113,50.373 C52.64,50.89 52.046,51.132 51.309,51.132 C50.396,51.132 49.45,50.505 49.45,49.361 C49.45,48.206 50.385,47.601 51.309,47.601 C52.046,47.601 52.651,47.843 53.113,48.36 L53.113,47.282 C53.113,46.49 52.475,46.061 51.683,46.061 C51.023,46.061 50.506,46.292 50.022,46.842 L49.703,46.446 C50.253,45.852 50.869,45.555 51.749,45.555 C52.827,45.555 53.685,46.072 53.685,47.26 L53.685,51 Z M51.507,50.681 C52.145,50.681 52.739,50.439 53.113,49.955 L53.113,48.789 C52.739,48.305 52.145,48.052 51.507,48.052 C50.627,48.052 50.055,48.613 50.055,49.372 C50.055,50.12 50.627,50.681 51.507,50.681 Z M55.984,51 L55.302,51 L56.787,48.822 C55.918,48.767 55.346,48.151 55.346,47.26 C55.346,46.38 55.94,45.687 56.963,45.687 L59.603,45.687 L59.603,51 L59.02,51 L59.02,48.833 L57.403,48.833 L55.984,51 Z M57.007,48.327 L59.02,48.327 L59.02,46.193 L57.007,46.193 C56.325,46.193 55.94,46.633 55.94,47.26 C55.94,47.887 56.303,48.327 57.007,48.327 Z M68.381,51 L68.381,45.687 L64.223,45.687 L64.223,51 L64.795,51 L64.795,46.193 L67.809,46.193 L67.809,51 L68.381,51 Z M69.47,51.132 C70.383,51.132 70.889,50.417 71.153,48.404 L71.45,46.193 L73.749,46.193 L73.749,51 L74.321,51 L74.321,45.687 L70.933,45.687 L70.581,48.338 C70.35,50.043 69.987,50.637 69.47,50.637 L69.47,51.132 Z M80.052,51 L79.48,51 L79.48,50.373 C79.007,50.89 78.413,51.132 77.676,51.132 C76.763,51.132 75.817,50.505 75.817,49.361 C75.817,48.206 76.752,47.601 77.676,47.601 C78.413,47.601 79.018,47.843 79.48,48.36 L79.48,47.282 C79.48,46.49 78.842,46.061 78.05,46.061 C77.39,46.061 76.873,46.292 76.389,46.842 L76.07,46.446 C76.62,45.852 77.236,45.555 78.116,45.555 C79.194,45.555 80.052,46.072 80.052,47.26 L80.052,51 Z M77.874,50.681 C78.512,50.681 79.106,50.439 79.48,49.955 L79.48,48.789 C79.106,48.305 78.512,48.052 77.874,48.052 C76.994,48.052 76.422,48.613 76.422,49.372 C76.422,50.12 76.994,50.681 77.874,50.681 Z M83.374,51 L83.374,46.193 L84.947,46.193 L84.947,45.687 L81.24,45.687 L81.24,46.193 L82.802,46.193 L82.802,51 L83.374,51 Z M87.752,45.555 C88.346,45.555 88.863,45.94 89.204,46.545 L89.204,43.663 L89.776,43.663 L89.776,46.523 C90.073,45.984 90.612,45.555 91.228,45.555 C92.339,45.555 93.098,46.633 93.098,48.338 C93.098,50.032 92.339,51.132 91.228,51.132 C90.645,51.132 90.117,50.747 89.776,50.142 L89.776,53.024 L89.204,53.024 L89.204,50.153 C88.907,50.703 88.368,51.132 87.752,51.132 C86.641,51.132 85.882,50.054 85.882,48.349 C85.882,46.655 86.641,45.555 87.752,45.555 Z M87.873,46.072 C86.971,46.072 86.465,47.062 86.465,48.349 C86.465,49.636 86.971,50.615 87.873,50.615 C88.434,50.615 88.962,50.175 89.204,49.658 L89.204,47.04 C88.962,46.534 88.434,46.072 87.873,46.072 Z M91.107,50.615 C92.009,50.615 92.515,49.625 92.515,48.338 C92.515,47.051 92.009,46.072 91.107,46.072 C90.546,46.072 90.018,46.512 89.776,47.018 L89.776,49.647 C90.018,50.153 90.546,50.615 91.107,50.615 Z M96.871,51.132 C95.32,51.132 94.319,49.889 94.319,48.338 C94.319,46.787 95.32,45.555 96.871,45.555 C98.444,45.555 99.434,46.787 99.434,48.338 C99.434,49.889 98.444,51.132 96.871,51.132 Z M96.871,50.615 C98.125,50.615 98.818,49.526 98.818,48.338 C98.818,47.161 98.125,46.072 96.871,46.072 C95.639,46.072 94.935,47.161 94.935,48.338 C94.935,49.526 95.639,50.615 96.871,50.615 Z M103.328,51.132 C102.58,51.132 101.909,50.747 101.48,50.142 L101.48,53.024 L100.908,53.024 L100.908,45.687 L101.48,45.687 L101.48,46.523 C101.854,45.984 102.536,45.555 103.328,45.555 C104.747,45.555 105.704,46.633 105.704,48.338 C105.704,50.032 104.747,51.132 103.328,51.132 Z M103.229,50.615 C104.417,50.615 105.088,49.625 105.088,48.338 C105.088,47.051 104.417,46.072 103.229,46.072 C102.492,46.072 101.788,46.512 101.48,47.018 L101.48,49.647 C101.788,50.153 102.492,50.615 103.229,50.615 Z M112.161,51 L112.161,45.687 L111.369,45.687 L109.653,49.999 L107.915,45.687 L107.145,45.687 L107.145,51 L107.717,51 L107.717,46.468 L109.554,51 L109.763,51 L111.578,46.468 L111.578,51 L112.161,51 Z M117.892,51 L117.32,51 L117.32,50.373 C116.847,50.89 116.253,51.132 115.516,51.132 C114.603,51.132 113.657,50.505 113.657,49.361 C113.657,48.206 114.592,47.601 115.516,47.601 C116.253,47.601 116.858,47.843 117.32,48.36 L117.32,47.282 C117.32,46.49 116.682,46.061 115.89,46.061 C115.23,46.061 114.713,46.292 114.229,46.842 L113.91,46.446 C114.46,45.852 115.076,45.555 115.956,45.555 C117.034,45.555 117.892,46.072 117.892,47.26 L117.892,51 Z M115.714,50.681 C116.352,50.681 116.946,50.439 117.32,49.955 L117.32,48.789 C116.946,48.305 116.352,48.052 115.714,48.052 C114.834,48.052 114.262,48.613 114.262,49.372 C114.262,50.12 114.834,50.681 115.714,50.681 Z" id="Инновационная-мобиль" fill="#999999"></path>
                        <path d="M6,18.372591 L6,0 L9.32605202,0 L9.32605202,7.58029979 L18.1746055,7.58029979 L18.1746055,0 L21.5006575,0 L21.5006575,18.372591 L18.1746055,18.372591 L18.1746055,10.5353319 L9.32605202,10.5353319 L9.32605202,18.372591 L6,18.372591 Z M23.8974231,4.88222698 L27.4242934,4.88222698 L30.7503454,14.5952891 L34.0010906,4.88222698 L37.4652052,4.88222698 L31.9929083,18.7708779 C31.0222819,21.220569 29.4701398,22.9635922 27.3364354,24 L25.7298895,21.6745182 C27.202564,21.014986 28.2735838,19.9400503 28.9429813,18.4496788 L23.8974231,4.88222698 Z M42.8742443,14.8522484 C43.7026237,15.3147775 44.5937457,15.5460385 45.5476371,15.5460385 C47.530727,15.5460385 48.5222572,14.1199286 48.5222572,11.267666 C48.5222572,8.84367096 47.4261353,7.63169165 45.2338586,7.63169165 C44.2883346,7.63169165 43.5018044,7.69164822 42.8742443,7.81156317 L42.8742443,14.8522484 Z M39.5481923,5.43468951 C41.2969932,5.06637931 43.1461759,4.88222698 45.095796,4.88222698 C49.5723916,4.88222698 51.8106558,7.01925058 51.8106558,11.2933619 C51.8106558,16.0128716 49.7271874,18.372591 45.5601882,18.372591 C44.6732366,18.372591 43.7779309,18.1584604 42.8742443,17.7301927 L42.8742443,23.254818 L39.5481923,23.254818 L39.5481923,5.43468951 Z M60.3951333,4.88222698 C64.3947831,4.88222698 66.394578,6.97214184 66.394578,11.1520343 C66.394578,11.7087822 66.356925,12.2655218 66.2816178,12.8222698 L57.5334734,12.8222698 C57.5334734,14.7237782 58.8973503,15.6745182 61.6251449,15.6745182 C62.9555724,15.6745182 64.2859799,15.5460398 65.6164074,15.2890792 L65.6164074,17.987152 C64.4533293,18.2441126 63.0392483,18.372591 61.3741221,18.372591 C56.5962977,18.372591 54.2074214,16.0728281 54.2074214,11.4732334 C54.2074214,7.07920715 56.2699714,4.88222698 60.3951333,4.88222698 Z M57.5334734,10.4582441 L63.156384,10.4582441 L63.156384,10.3554604 C63.156384,8.48821336 62.2359763,7.55460385 60.3951333,7.55460385 C58.6379649,7.55460385 57.6840878,8.52247426 57.5334734,10.4582441 Z M69.4063495,18.372591 L69.4063495,4.88222698 L71.9793331,4.88222698 L72.3935207,6.60385439 C73.5482314,5.45609704 74.7698634,4.88222698 76.0584535,4.88222698 L76.0584535,7.63169165 C74.8200682,7.63169165 73.7113953,8.15845298 72.7324015,9.21199143 L72.7324015,18.372591 L69.4063495,18.372591 Z M78.9268276,18.372591 L78.9268276,0 L82.2528796,0 L82.2528796,7.58029979 L91.1014331,7.58029979 L91.1014331,0 L94.4274851,0 L94.4274851,18.372591 L91.1014331,18.372591 L91.1014331,10.5353319 L82.2528796,10.5353319 L82.2528796,18.372591 L78.9268276,18.372591 Z M101.719195,0 L101.719195,2.69807281 L98.3931432,2.69807281 L98.3931432,0 L101.719195,0 Z M101.719195,4.88222698 L101.719195,18.372591 L98.3931432,18.372591 L98.3931432,4.88222698 L101.719195,4.88222698 Z M103.802182,4.88222698 L107.316501,4.88222698 L110.517042,14.3126338 L113.843094,4.88222698 L117.357413,4.88222698 L111.998077,18.372591 L108.835189,18.372591 L103.802182,4.88222698 Z M125.000555,4.88222698 C129.000205,4.88222698 131,6.97214184 131,11.1520343 C131,11.7087822 130.962347,12.2655218 130.88704,12.8222698 L122.138895,12.8222698 C122.138895,14.7237782 123.502772,15.6745182 126.230567,15.6745182 C127.560994,15.6745182 128.891402,15.5460398 130.221829,15.2890792 L130.221829,17.987152 C129.058751,18.2441126 127.64467,18.372591 125.979544,18.372591 C121.20172,18.372591 118.812843,16.0728281 118.812843,11.4732334 C118.812843,7.07920715 120.875393,4.88222698 125.000555,4.88222698 Z M122.138895,10.4582441 L127.761806,10.4582441 L127.761806,10.3554604 C127.761806,8.48821336 126.841398,7.55460385 125.000555,7.55460385 C123.243387,7.55460385 122.28951,8.52247426 122.138895,10.4582441 Z" id="Hyper-Hive" fill="#191919"></path>
                    </g>
                    <g id="symbol">
                        <path d="M4.27648086,17.651837 L4.27648086,40.2566469 L24,51.225128 L43.7235191,40.2566469 L43.7235191,36.8380673 L27.2688392,8.78653504 L23.8621312,6.94795356 L4.27648086,17.651837 Z M23.8492634,2.1 L31.6439991,6.30677571 L48,34.3791383 L48,42.7533176 L24,56.1 L0,42.7533176 L0,15.1340188 L23.8492634,2.1 Z" id="Path-2" fill="#992E63" fill-rule="nonzero"></path>
                        <polygon id="Path-3" fill="#FFFFFF" points="11.7963011 16.2127819 41.4144019 0.685523897 61.9675314 7.76657816 60.3456858 27.7864764 30.3571301 44.8967601 11.4122132 33.7309521"></polygon>
                        <path d="M21.1527192,17.6696675 L21.1527192,30.1541578 L32,36.231142 L42.8472808,30.1541578 L42.8472808,17.6845347 L31.918285,11.742525 L21.1527192,17.6696675 Z M31.9057897,7 L47,15.2066044 L47,32.5965333 L32,41 L17,32.5965333 L17,15.2066044 L31.9057897,7 Z" id="Path-2" fill="#B9D048" fill-rule="nonzero"></path>
                        <polygon id="Path-4" fill="#206CB2" points="24.0466733 19.5704876 32.0233367 15 40 19.5704876 40 28.6757766 32 33 24 28.6757766"></polygon>
                    </g>
                </g>
            </g>
        </g>
    </g>
</svg>