<?xml version="1.0" encoding="UTF-8"?>
<svg width="195px" height="60px" viewBox="0 0 195 60" version="1.1" xmlns="http://www.w3.org/2000/svg" xmlns:xlink="http://www.w3.org/1999/xlink">
    <!-- Generator: Sketch 44.1 (41455) - http://www.bohemiancoding.com/sketch -->
    <title>logotype</title>
    <desc>Created with Sketch.</desc>
    <defs></defs>
    <g id="template" stroke="none" stroke-width="1" fill="none" fill-rule="evenodd">
        <g id="page" transform="translate(-405.000000, -27.000000)">
            <g id="navigation">
                <g id="logotype" transform="translate(405.000000, 27.000000)">
                    <g id="name" transform="translate(64.000000, 6.000000)">
                        <text id="Инновационная-мобиль" font-family="ProximaNova-Light, Proxima Nova" font-size="11" font-weight="300" fill="#999999">
                            <tspan x="6" y="38">Инновационная</tspan>
                            <tspan x="6" y="51">мобильная платформа</tspan>
                        </text>
                        <path d="M6,18.372591 L6,0 L9.32605202,0 L9.32605202,7.58029979 L18.1746055,7.58029979 L18.1746055,0 L21.5006575,0 L21.5006575,18.372591 L18.1746055,18.372591 L18.1746055,10.5353319 L9.32605202,10.5353319 L9.32605202,18.372591 L6,18.372591 Z M23.8974231,4.88222698 L27.4242934,4.88222698 L30.7503454,14.5952891 L34.0010906,4.88222698 L37.4652052,4.88222698 L31.9929083,18.7708779 C31.0222819,21.220569 29.4701398,22.9635922 27.3364354,24 L25.7298895,21.6745182 C27.202564,21.014986 28.2735838,19.9400503 28.9429813,18.4496788 L23.8974231,4.88222698 Z M42.8742443,14.8522484 C43.7026237,15.3147775 44.5937457,15.5460385 45.5476371,15.5460385 C47.530727,15.5460385 48.5222572,14.1199286 48.5222572,11.267666 C48.5222572,8.84367096 47.4261353,7.63169165 45.2338586,7.63169165 C44.2883346,7.63169165 43.5018044,7.69164822 42.8742443,7.81156317 L42.8742443,14.8522484 Z M39.5481923,5.43468951 C41.2969932,5.06637931 43.1461759,4.88222698 45.095796,4.88222698 C49.5723916,4.88222698 51.8106558,7.01925058 51.8106558,11.2933619 C51.8106558,16.0128716 49.7271874,18.372591 45.5601882,18.372591 C44.6732366,18.372591 43.7779309,18.1584604 42.8742443,17.7301927 L42.8742443,23.254818 L39.5481923,23.254818 L39.5481923,5.43468951 Z M60.3951333,4.88222698 C64.3947831,4.88222698 66.394578,6.97214184 66.394578,11.1520343 C66.394578,11.7087822 66.356925,12.2655218 66.2816178,12.8222698 L57.5334734,12.8222698 C57.5334734,14.7237782 58.8973503,15.6745182 61.6251449,15.6745182 C62.9555724,15.6745182 64.2859799,15.5460398 65.6164074,15.2890792 L65.6164074,17.987152 C64.4533293,18.2441126 63.0392483,18.372591 61.3741221,18.372591 C56.5962977,18.372591 54.2074214,16.0728281 54.2074214,11.4732334 C54.2074214,7.07920715 56.2699714,4.88222698 60.3951333,4.88222698 Z M57.5334734,10.4582441 L63.156384,10.4582441 L63.156384,10.3554604 C63.156384,8.48821336 62.2359763,7.55460385 60.3951333,7.55460385 C58.6379649,7.55460385 57.6840878,8.52247426 57.5334734,10.4582441 Z M69.4063495,18.372591 L69.4063495,4.88222698 L71.9793331,4.88222698 L72.3935207,6.60385439 C73.5482314,5.45609704 74.7698634,4.88222698 76.0584535,4.88222698 L76.0584535,7.63169165 C74.8200682,7.63169165 73.7113953,8.15845298 72.7324015,9.21199143 L72.7324015,18.372591 L69.4063495,18.372591 Z M78.9268276,18.372591 L78.9268276,0 L82.2528796,0 L82.2528796,7.58029979 L91.1014331,7.58029979 L91.1014331,0 L94.4274851,0 L94.4274851,18.372591 L91.1014331,18.372591 L91.1014331,10.5353319 L82.2528796,10.5353319 L82.2528796,18.372591 L78.9268276,18.372591 Z M101.719195,0 L101.719195,2.69807281 L98.3931432,2.69807281 L98.3931432,0 L101.719195,0 Z M101.719195,4.88222698 L101.719195,18.372591 L98.3931432,18.372591 L98.3931432,4.88222698 L101.719195,4.88222698 Z M103.802182,4.88222698 L107.316501,4.88222698 L110.517042,14.3126338 L113.843094,4.88222698 L117.357413,4.88222698 L111.998077,18.372591 L108.835189,18.372591 L103.802182,4.88222698 Z M125.000555,4.88222698 C129.000205,4.88222698 131,6.97214184 131,11.1520343 C131,11.7087822 130.962347,12.2655218 130.88704,12.8222698 L122.138895,12.8222698 C122.138895,14.7237782 123.502772,15.6745182 126.230567,15.6745182 C127.560994,15.6745182 128.891402,15.5460398 130.221829,15.2890792 L130.221829,17.987152 C129.058751,18.2441126 127.64467,18.372591 125.979544,18.372591 C121.20172,18.372591 118.812843,16.0728281 118.812843,11.4732334 C118.812843,7.07920715 120.875393,4.88222698 125.000555,4.88222698 Z M122.138895,10.4582441 L127.761806,10.4582441 L127.761806,10.3554604 C127.761806,8.48821336 126.841398,7.55460385 125.000555,7.55460385 C123.243387,7.55460385 122.28951,8.52247426 122.138895,10.4582441 Z" id="Hyper-Hive" fill="#191919"></path>
                    </g>
                    <g id="symbol">
                        <path d="M4.27648086,17.651837 L4.27648086,40.2566469 L24,51.225128 L43.7235191,40.2566469 L43.7235191,36.8380673 L27.2688392,8.78653504 L23.8621312,6.94795356 L4.27648086,17.651837 Z M23.8492634,2.1 L31.6439991,6.30677571 L48,34.3791383 L48,42.7533176 L24,56.1 L0,42.7533176 L0,15.1340188 L23.8492634,2.1 Z" id="Path-2" fill="#992E63" fill-rule="nonzero"></path>
                        <polygon id="Path-3" fill="#FFFFFF" points="11.7963011 16.2127819 41.4144019 0.685523897 61.9675314 7.76657816 60.3456858 27.7864764 30.3571301 44.8967601 11.4122132 33.7309521"></polygon>
                        <path d="M21.1527192,17.6696675 L21.1527192,30.1541578 L32,36.231142 L42.8472808,30.1541578 L42.8472808,17.6845347 L31.918285,11.742525 L21.1527192,17.6696675 Z M31.9057897,7 L47,15.2066044 L47,32.5965333 L32,41 L17,32.5965333 L17,15.2066044 L31.9057897,7 Z" id="Path-2" fill="#B9D048" fill-rule="nonzero"></path>
                        <polygon id="Path-4" fill="#206CB2" points="24.0466733 19.5704876 32.0233367 15 40 19.5704876 40 28.6757766 32 33 24 28.6757766"></polygon>
                    </g>
                </g>
            </g>
        </g>
    </g>
</svg>