<?xml version="1.0" encoding="UTF-8"?>
<svg width="24px" height="24px" viewBox="0 0 24 24" version="1.1" xmlns="http://www.w3.org/2000/svg" xmlns:xlink="http://www.w3.org/1999/xlink">
    <!-- Generator: Sketch 44.1 (41455) - http://www.bohemiancoding.com/sketch -->
    <title>plus</title>
    <desc>Created with Sketch.</desc>
    <defs>
        <radialGradient cx="79.4227431%" cy="0%" fx="79.4227431%" fy="0%" r="113.307326%" id="radialGradient-1">
            <stop stop-color="#3091F3" offset="0%"></stop>
            <stop stop-color="#45E695" offset="100%"></stop>
        </radialGradient>
    </defs>
    <g id="template" stroke="none" stroke-width="1" fill="none" fill-rule="evenodd">
        <g id="page" transform="translate(-528.000000, -5454.000000)" fill-rule="nonzero" fill="url(#radialGradient-1)">
            <g id="inner" transform="translate(0.000000, 5238.000000)">
                <g id="content" transform="translate(405.000000, 216.000000)">
                    <g id="plus" transform="translate(123.000000, 0.000000)">
                        <path d="M12,22 C17.5228475,22 22,17.5228475 22,12 C22,6.4771525 17.5228475,2 12,2 C6.4771525,2 2,6.4771525 2,12 C2,17.5228475 6.4771525,22 12,22 Z M12,24 C5.372583,24 0,18.627417 0,12 C0,5.372583 5.372583,0 12,0 C18.627417,0 24,5.372583 24,12 C24,18.627417 18.627417,24 12,24 Z M11,6.00684547 C11,5.45078007 11.4438648,5 12,5 L12,5 C12.5522847,5 13,5.44994876 13,6.00684547 L13,17.9931545 C13,18.5492199 12.5561352,19 12,19 L12,19 C11.4477153,19 11,18.5500512 11,17.9931545 L11,6.00684547 Z M5,12 C5,11.4477153 5.44994876,11 6.00684547,11 L17.9931545,11 C18.5492199,11 19,11.4438648 19,12 L19,12 C19,12.5522847 18.5500512,13 17.9931545,13 L6.00684547,13 C5.45078007,13 5,12.5561352 5,12 L5,12 Z"></path>
                    </g>
                </g>
            </g>
        </g>
    </g>
</svg>